<svg width="2515" height="2734" viewBox="0 0 2515 2734" fill="none" xmlns="http://www.w3.org/2000/svg">
<path d="M1780.71 1994.72H2423.68C2423.68 1994.72 2391.69 1953.11 2356.47 1947.89C2356.47 1947.89 2288.15 1743.8 2173.12 1742.37C2066.48 1741 2023.68 1867.83 2023.68 1867.83C2023.68 1867.83 1974 1810.94 1927.04 1836.78C1880.09 1862.62 1853.07 1937.27 1853.07 1937.27C1853.07 1937.27 1799.96 1966.09 1780.71 1994.72Z" fill="#EBEBEB"/>
<path d="M813.089 1201.51H0C0 1201.51 0 1149.59 111.799 1139.4C111.799 1139.4 214.033 912.325 370.179 942.884C467.444 961.517 517.132 1095.36 517.132 1095.36C517.132 1095.36 590.609 990.274 649.365 1010.65C708.122 1031.02 743.028 1142.82 743.028 1142.82C743.028 1142.82 803.896 1172.2 813.089 1201.51Z" fill="#EBEBEB"/>
<path d="M2388.46 1026.11H1835.68C1835.68 1026.11 1887.85 977.541 1911.02 977.541C1934.18 977.541 2001.88 814.501 2088.34 821.458C2174.8 828.414 2220.7 949.778 2220.7 949.778C2220.7 949.778 2325.79 916.859 2388.46 1026.11Z" fill="#EBEBEB"/>
<path d="M1159.85 1691.56H687.004C687.004 1691.56 710.544 1660.94 736.693 1657.09C736.693 1657.09 787.127 1507.03 871.473 1505.98C949.918 1504.98 981.408 1598.27 981.408 1598.27C981.408 1598.27 1017.74 1556.41 1052.46 1575.54C1087.18 1594.67 1106.87 1649.45 1106.87 1649.45C1106.87 1649.45 1145.63 1670.51 1159.85 1691.56Z" fill="#EBEBEB"/>
<path d="M748.866 614.878H1391.96C1391.96 614.878 1360.03 573.264 1324.76 568.047C1324.76 568.047 1256.43 363.952 1141.47 362.523C1034.76 361.157 991.967 487.986 991.967 487.986C991.967 487.986 942.278 431.093 895.323 456.931C848.367 482.769 821.411 557.426 821.411 557.426C821.411 557.426 768.121 586.245 748.866 614.878Z" fill="#EBEBEB"/>
<path d="M1908.1 288.053C1908.1 381.964 1838.47 481.527 1780.77 561.339C1757.6 593.45 1736.8 623.139 1721.64 645.126C1705.55 668.355 1695.62 683.075 1695.62 683.075H1586.99C1586.99 683.075 1577.05 668.355 1560.96 645.126C1545.81 623.139 1525 593.45 1501.83 561.339C1444.13 481.403 1374.51 381.84 1374.51 288.053C1374.51 134.64 1488.66 34.6418 1615.37 22.5303H1616.67C1624.81 21.847 1633.07 21.4744 1641.52 21.4744C1649.97 21.4744 1658.04 21.847 1666.36 22.5303H1667.67C1793.94 34.6418 1908.1 134.64 1908.1 288.053Z" fill="#EBEBEB"/>
<path d="M1659.97 645.25C1657.92 657.672 1655.74 670.094 1653.75 683.2H1629.47C1627.17 670.281 1625 657.672 1622.95 645.25C1534.07 109.858 1641.58 21.2881 1641.58 21.2881C1641.58 21.2881 1748.85 109.858 1659.97 645.25Z" fill="white"/>
<path d="M1601.21 645.25C1611.21 669.101 1617.92 683.2 1617.92 683.2H1603.69C1603.69 683.2 1594.56 669.039 1579.9 645.25C1569.35 627.921 1555.87 605.5 1540.9 579.537C1492.02 494.446 1429.1 388.982 1440.96 271.283C1457.11 108.305 1594.94 32.8406 1615.37 22.8408L1617.92 21.5986L1616.67 22.6545C1605 33.3375 1513.07 122.652 1513.07 287.494C1513.07 418.671 1571.58 574.755 1601.21 645.25Z" fill="white"/>
<path d="M1741.7 579.537C1726.73 605.5 1713.26 627.921 1702.7 645.25C1688.04 669.039 1678.91 683.2 1678.91 683.2H1664.69C1664.69 683.2 1671.39 669.101 1681.39 645.25C1711.02 574.755 1769.53 418.671 1769.53 287.183C1769.53 122.342 1677.6 33.027 1665.93 22.344L1664.69 21.2881L1667.23 22.5303C1687.67 32.8406 1825.49 108.305 1841.64 271.283C1853.32 388.982 1790.58 494.446 1741.7 579.537Z" fill="white"/>
<path d="M1721.64 645.25C1705.55 668.48 1695.62 683.2 1695.62 683.2H1586.99C1586.99 683.2 1577.05 668.48 1560.96 645.25H1721.64Z" fill="#DBDBDB"/>
<path d="M1479.11 427.315L1473.16 429.118L1582.89 790.718L1588.83 788.914L1479.11 427.315Z" fill="#DBDBDB"/>
<path d="M1588.97 428.088L1582.77 428.506L1607.17 790.099L1613.37 789.681L1588.97 428.088Z" fill="#DBDBDB"/>
<path d="M1803.45 427.359L1693.85 788.997L1699.79 790.798L1809.39 429.161L1803.45 427.359Z" fill="#DBDBDB"/>
<path d="M1693.55 428.081L1669.15 789.673L1675.35 790.091L1699.75 428.499L1693.55 428.081Z" fill="#DBDBDB"/>
<path d="M1875.43 425.627H1407.11V438.05H1875.43V425.627Z" fill="#DBDBDB"/>
<path d="M1702.14 791.334L1699.53 822.7L1693.69 893.319H1588.91L1583.07 822.7L1580.46 791.334H1702.14Z" fill="#EBEBEB"/>
<path d="M1702.14 791.334L1699.53 822.7H1583.07L1580.46 791.334H1702.14Z" fill="#DBDBDB"/>
<path d="M1708.23 782.452H1574.38V800.216H1708.23V782.452Z" fill="#EBEBEB"/>
<path d="M56.5206 2304.16L345.334 2302.67L634.21 2302.11L1211.84 2301.05L1789.47 2302.11L2078.34 2302.67L2367.16 2304.16L2078.34 2305.65L1789.47 2306.21L1211.84 2307.27L634.21 2306.21L345.334 2305.65L56.5206 2304.16Z" fill="#263238"/>
<path d="M1211.84 2733.9C1808.81 2733.9 2292.75 2679.71 2292.75 2612.85C2292.75 2545.99 1808.81 2491.8 1211.84 2491.8C614.868 2491.8 130.929 2545.99 130.929 2612.85C130.929 2679.71 614.868 2733.9 1211.84 2733.9Z" fill="#EBEBEB"/>
<path d="M506.511 175.136C504.462 173.645 403.843 154.453 337.881 237.246C277.199 313.332 278.131 427.491 288.752 427.615C301.733 427.615 322.291 367.927 379.371 323.642C399.619 307.928 438.376 308.798 438.376 308.798L506.511 175.136Z" fill="#2A4F96"/>
<path d="M698.867 312.959C700.917 314.388 751.413 403.516 694.271 492.583C641.726 574.506 533.281 610.593 529.803 600.282C525.579 587.86 575.516 549.352 599.118 481.03C607.503 456.807 594.211 420.41 594.211 420.41L698.867 312.959Z" fill="#2A4F96"/>
<path d="M525.703 477.49L407.134 392.523C407.134 392.523 412.414 266.935 491.977 169.67C531.906 122.563 579.615 82.6479 633.03 51.6601C700.731 11.4746 762.282 -7.28278 775.884 2.59279C789.487 12.4684 791.66 77.1254 775.45 153.832C763.297 214.296 740.928 272.247 709.302 325.195C642.906 432.087 525.703 477.49 525.703 477.49Z" fill="#EBEBEB"/>
<path d="M516.679 470.927L416.255 398.978L394.407 429.474L494.83 501.423L516.679 470.927Z" fill="#2A4F96"/>
<path d="M672.967 270.351C664.669 281.938 653.121 290.804 639.783 295.827C626.446 300.85 611.918 301.804 598.038 298.569C584.158 295.335 571.549 288.056 561.806 277.654C552.063 267.252 545.625 254.194 543.304 240.132C540.984 226.07 542.886 211.636 548.77 198.656C554.654 185.675 564.256 174.731 576.361 167.208C588.466 159.685 602.53 155.922 616.774 156.393C631.018 156.864 644.803 161.55 656.384 169.856C664.075 175.363 670.606 182.332 675.602 190.364C680.599 198.396 683.963 207.334 685.503 216.667C687.043 226 686.729 235.545 684.578 244.757C682.427 253.968 678.482 262.665 672.967 270.351Z" fill="#2A4F96"/>
<path d="M614.459 278.363C642.039 278.363 664.396 256.006 664.396 228.427C664.396 200.847 642.039 178.49 614.459 178.49C586.88 178.49 564.522 200.847 564.522 228.427C564.522 256.006 586.88 278.363 614.459 278.363Z" fill="#A6A6A6"/>
<path d="M775.636 154.142L632.782 51.9706C700.482 11.7851 762.034 -6.97223 775.636 2.90334C789.238 12.7789 791.847 77.1254 775.636 154.142Z" fill="#2A4F96"/>
<path d="M662.905 54.2687C662.499 54.8329 661.984 55.3112 661.392 55.676C660.8 56.0409 660.142 56.2852 659.455 56.3949C658.768 56.5045 658.066 56.4774 657.39 56.3151C656.714 56.1527 656.076 55.8583 655.514 55.4488C654.377 54.6251 653.615 53.3837 653.393 51.9976C653.172 50.6115 653.51 49.1942 654.334 48.0576C655.158 46.921 656.399 46.1581 657.785 45.9368C659.171 45.7155 660.589 46.0539 661.725 46.8775C662.296 47.2788 662.781 47.7905 663.151 48.3824C663.52 48.9744 663.768 49.6345 663.878 50.3237C663.988 51.0128 663.958 51.7171 663.791 52.3947C663.624 53.0723 663.323 53.7095 662.905 54.2687V54.2687Z" fill="#EBEBEB"/>
<path d="M690.11 73.8956C689.703 74.4598 689.189 74.9381 688.597 75.303C688.005 75.6679 687.346 75.9121 686.66 76.0218C685.973 76.1315 685.271 76.1043 684.595 75.942C683.918 75.7796 683.281 75.4852 682.719 75.0757C682.156 74.6679 681.679 74.1532 681.315 73.561C680.951 72.9689 680.707 72.3109 680.598 71.6245C680.488 70.9382 680.515 70.237 680.676 69.561C680.838 68.885 681.131 68.2474 681.539 67.6846C681.946 67.1218 682.461 66.6448 683.053 66.2809C683.645 65.917 684.303 65.6733 684.99 65.5638C685.676 65.4542 686.377 65.4808 687.053 65.6423C687.729 65.8037 688.367 66.0966 688.93 66.5045C689.501 66.9057 689.986 67.4175 690.355 68.0094C690.725 68.6013 690.972 69.2614 691.082 69.9506C691.192 70.6398 691.163 71.344 690.996 72.0216C690.829 72.6992 690.528 73.3365 690.11 73.8956V73.8956Z" fill="#EBEBEB"/>
<path d="M717.687 93.5846C717.28 94.1488 716.766 94.6271 716.174 94.992C715.582 95.3568 714.924 95.6011 714.237 95.7108C713.55 95.8205 712.848 95.7933 712.172 95.6309C711.496 95.4686 710.858 95.1742 710.296 94.7647C709.733 94.3568 709.256 93.8422 708.892 93.25C708.528 92.6579 708.285 91.9998 708.175 91.3135C708.065 90.6272 708.092 89.926 708.254 89.25C708.415 88.5739 708.708 87.9363 709.116 87.3735C709.524 86.8107 710.038 86.3338 710.63 85.9699C711.223 85.606 711.881 85.3623 712.567 85.2527C713.253 85.1431 713.955 85.1698 714.631 85.3312C715.307 85.4926 715.944 85.7856 716.507 86.1934C717.071 86.6001 717.549 87.1143 717.914 87.7064C718.279 88.2985 718.524 88.9569 718.633 89.6437C718.743 90.3306 718.716 91.0323 718.553 91.7086C718.391 92.3849 718.097 93.0224 717.687 93.5846V93.5846Z" fill="#EBEBEB"/>
<path d="M745.078 113.15C744.671 113.714 744.157 114.192 743.565 114.557C742.973 114.922 742.314 115.166 741.627 115.276C740.941 115.385 740.239 115.358 739.563 115.196C738.886 115.034 738.249 114.739 737.687 114.33C737.124 113.922 736.647 113.407 736.283 112.815C735.919 112.223 735.675 111.565 735.566 110.878C735.456 110.192 735.483 109.491 735.644 108.815C735.806 108.139 736.099 107.501 736.506 106.938C736.914 106.376 737.429 105.899 738.021 105.535C738.613 105.171 739.271 104.927 739.958 104.818C740.644 104.708 741.345 104.735 742.021 104.896C742.697 105.058 743.335 105.351 743.898 105.758C744.462 106.165 744.94 106.679 745.305 107.271C745.67 107.863 745.914 108.522 746.024 109.209C746.133 109.895 746.106 110.597 745.944 111.273C745.782 111.95 745.487 112.587 745.078 113.15V113.15Z" fill="#EBEBEB"/>
<path d="M772.468 132.776C771.646 133.912 770.41 134.679 769.027 134.911C767.644 135.144 766.226 134.823 765.077 134.019C763.937 133.185 763.169 131.938 762.937 130.545C762.705 129.152 763.027 127.724 763.835 126.565C764.668 125.422 765.92 124.655 767.318 124.434C768.715 124.213 770.143 124.555 771.288 125.385C771.853 125.792 772.331 126.306 772.696 126.898C773.06 127.49 773.305 128.149 773.414 128.836C773.524 129.522 773.497 130.224 773.335 130.9C773.172 131.577 772.878 132.214 772.468 132.776V132.776Z" fill="#EBEBEB"/>
<path d="M703.588 1225.18C703.588 1220.95 703.153 1216.73 703.153 1212.75H707.811C707.811 1216.73 707.811 1220.83 708.246 1225.18H703.588Z" fill="#263238"/>
<path d="M1151.4 1560.14H1144.01V1555.48C1152.27 1555.48 1160.53 1555.48 1168.86 1555.48V1560.14C1163.21 1560.01 1157.31 1560.14 1151.4 1560.14ZM1112.65 1558.59C1104.32 1557.9 1095.88 1556.97 1087.8 1555.85L1088.42 1551.26C1096.62 1552.37 1104.95 1553.24 1113.27 1553.93L1112.65 1558.59ZM1200.53 1557.59L1200.04 1553C1208.24 1552.13 1216.56 1551.07 1224.88 1549.83L1225.56 1554.42C1217.18 1555.67 1208.79 1556.78 1200.53 1557.59ZM1056.56 1550.64C1048.49 1549.02 1040.23 1547.09 1032.09 1545.05L1033.21 1540.51C1041.28 1542.56 1049.48 1544.49 1057.49 1546.1L1056.56 1550.64ZM1256.25 1548.65L1255.25 1544.05C1263.27 1542.31 1271.4 1540.32 1279.48 1537.84L1280.66 1542.37C1272.58 1544.8 1264.38 1546.97 1256.31 1548.65H1256.25ZM1001.59 1536.23C993.644 1533.68 985.694 1530.82 977.868 1527.84L979.545 1523.49C987.246 1526.47 995.134 1529.27 1003.02 1531.82L1001.59 1536.23ZM1310.41 1533.43L1308.92 1529.02C1316.74 1526.41 1324.63 1523.55 1332.33 1520.51L1334.07 1524.86C1326.62 1527.9 1318.67 1530.76 1310.78 1533.43H1310.41ZM949.297 1515.92C941.719 1512.5 934.142 1508.77 926.689 1504.92L928.863 1500.76C936.192 1504.61 943.769 1508.28 951.222 1511.69L949.297 1515.92ZM1363.33 1512.81L1361.4 1508.59C1368.85 1505.11 1376.31 1501.38 1383.51 1497.41L1385.75 1501.51C1378.42 1505.23 1370.9 1509.02 1363.33 1512.56V1512.81ZM899.236 1489.58C892.093 1485.23 884.95 1480.7 878.056 1476.1L880.603 1472.19C887.435 1476.79 894.515 1481.32 901.658 1485.61L899.236 1489.58ZM1412.7 1485.42L1410.16 1481.51C1416.93 1477.03 1423.82 1472.25 1430.53 1467.28L1433.32 1471.01C1426.49 1475.79 1419.6 1480.64 1412.7 1485.17V1485.42ZM852.467 1457.78C845.883 1452.69 839.299 1447.35 832.902 1441.94L835.945 1438.4C842.156 1443.81 848.74 1449.02 855.324 1454.05L852.467 1457.78ZM1457.73 1451.57L1454.69 1448.03C1460.9 1442.75 1467.11 1437.1 1473.32 1431.32L1476.55 1434.67C1470.22 1440.08 1463.94 1445.79 1457.73 1451.13V1451.57ZM809.61 1421.01C803.399 1415.17 797.685 1409.09 792.095 1403L795.511 1399.83C801.039 1406.04 806.94 1411.88 812.902 1417.66L809.61 1421.01ZM1498.29 1412.25L1494.88 1409.09C1500.34 1402.87 1505.87 1396.66 1511.33 1390.45L1514.88 1393.5C1509.35 1399.52 1503.76 1405.86 1498.29 1411.82V1412.25ZM771.599 1379.15C766.381 1372.5 761.288 1365.73 756.568 1358.96L760.357 1356.29C765.015 1363 770.046 1369.71 775.263 1376.23L771.599 1379.15ZM1534.81 1368.53L1531.15 1365.67C1536.05 1359.46 1541.02 1352.5 1545.93 1345.61L1549.72 1348.28C1544.5 1355.24 1539.47 1362.07 1534.81 1368.53ZM739.798 1332.01C735.513 1324.62 731.538 1317.1 727.997 1309.77L732.159 1307.72C735.637 1314.99 739.55 1322.38 743.835 1329.71L739.798 1332.01ZM1567.36 1322.44L1563.45 1319.83C1567.98 1312.94 1572.51 1305.92 1576.92 1298.84L1580.9 1301.26C1576.18 1308.4 1571.64 1315.48 1567.11 1322.44H1567.36ZM715.886 1280.64C713.083 1272.7 710.699 1264.61 708.743 1256.42L713.277 1255.3C715.19 1263.34 717.512 1271.28 720.233 1279.09L715.886 1280.64ZM1597.05 1274.43L1593.07 1272.07C1597.23 1264.93 1601.4 1257.72 1605.49 1250.39L1609.53 1252.69C1605.18 1260.02 1601.02 1267.47 1596.92 1274.43H1597.05ZM1624.69 1225.24L1620.59 1223C1624.5 1215.74 1628.41 1208.34 1632.33 1200.95L1636.43 1203.13L1624.69 1225.24ZM1650.84 1175.55L1646.67 1173.44L1658.04 1151.14L1662.2 1153.19C1658.27 1160.56 1654.4 1167.93 1650.59 1175.3L1650.84 1175.55ZM1676.24 1125.24L1672.08 1123.13L1683.26 1100.77L1687.42 1102.82L1676.24 1125.24ZM1701.46 1074.87L1697.29 1072.76L1708.54 1050.4L1712.7 1052.51L1701.46 1074.87ZM1726.92 1024.62L1722.82 1022.51C1726.61 1015.12 1730.46 1007.73 1734.37 1000.27L1738.54 1002.45C1734.37 1009.59 1730.52 1016.98 1726.67 1024.37L1726.92 1024.62ZM1753.26 974.933L1749.16 972.697C1753.13 965.43 1757.11 958.101 1761.21 950.834L1765.24 953.132C1760.96 960.088 1756.92 967.355 1753.01 974.622L1753.26 974.933ZM1780.65 925.99L1776.61 923.692C1780.83 916.487 1785.06 909.282 1789.34 902.139L1793.32 904.562C1788.84 911.477 1784.54 918.578 1780.4 925.866L1780.65 925.99ZM1809.71 878.041L1805.74 875.556C1810.21 868.538 1814.74 861.519 1819.34 854.563L1823.19 857.171C1818.41 863.755 1813.88 870.774 1809.47 877.73L1809.71 878.041ZM1840.77 831.333L1836.98 828.663C1841.76 821.831 1846.61 814.998 1851.58 808.29L1855.3 811.023C1850.25 817.524 1845.32 824.191 1840.52 831.023L1840.77 831.333ZM1874.18 786.179L1870.21 783.011C1875.36 776.428 1880.64 769.968 1885.99 763.509L1889.59 766.49C1884.31 772.887 1879.09 779.347 1873.94 785.869L1874.18 786.179ZM1910.21 743.136L1906.73 740.031C1912.28 733.82 1917.93 727.609 1923.69 721.398L1927.04 724.565C1921.08 730.528 1915.49 736.615 1909.96 742.826L1910.21 743.136ZM1948.9 702.516L1945.67 699.224C1951.88 693.386 1957.72 687.61 1963.87 681.958L1967.04 685.374C1960.64 690.715 1954.56 696.429 1948.65 702.268L1948.9 702.516ZM1990.39 664.815L1987.41 661.275C1993.62 655.871 2000.33 650.592 2006.85 645.437L2009.71 649.101C2003 653.884 1996.48 659.163 1990.14 664.505L1990.39 664.815ZM2034.62 630.344L2031.88 626.555C2038.65 621.71 2045.61 616.866 2052.5 612.27L2055.11 616.121C2047.97 620.406 2041.08 625.189 2034.37 630.033L2034.62 630.344ZM2081.39 599.289L2078.9 595.313C2086.04 591.028 2093.37 586.742 2100.58 582.891L2102.88 586.991C2095.42 590.469 2088.22 594.755 2081.39 599.04V599.289Z" fill="#263238"/>
<path d="M2131.07 571.152L2128.96 566.991C2132.63 565.128 2136.35 563.264 2140.14 561.463L2142.19 565.625L2131.07 571.152Z" fill="#263238"/>
<path d="M2114.12 487.49L2070.21 608.17L2162.44 536.122L2514.98 408.237L2114.12 487.49Z" fill="#2A4F96"/>
<path opacity="0.2" d="M2114.12 487.49L2070.21 608.17L2162.44 536.122L2514.98 408.237L2114.12 487.49Z" fill="#222221"/>
<path d="M2174.24 564.258L2070.21 608.17L2162.44 536.122L2174.24 564.258Z" fill="#263238"/>
<path d="M2162.44 536.122L2514.98 408.237L2225.79 690.467L2162.44 536.122Z" fill="#2A4F96"/>
<path d="M2114.12 487.49L1967.6 392.895L2514.98 408.237L2114.12 487.49Z" fill="#2A4F96"/>
<path d="M1316.99 1113C1316.99 1113 1279.04 1451.63 1253.02 1671.44C1248.3 1711.13 1244.01 1746.97 1240.6 1776.16C1235.69 1815.66 1232.02 1843.18 1230.35 1852.12C1228.86 1859.76 1229.35 1890.19 1229.66 1932.86C1229.66 1956.9 1229.66 1984.85 1229.66 2014.85C1228.3 2130.68 1228.61 2284.22 1228.92 2380.49C1228.92 2435.34 1227.06 2471.61 1227.06 2471.61H964.7C964.7 2471.61 963.955 2436.33 963.334 2380.49C961.657 2229.07 960.663 1926.65 976.501 1766.72C998.489 1544.67 1068.98 1113 1068.98 1113H1316.99Z" fill="#EB9481"/>
<path d="M779.735 2681.79C793.958 2686.51 1199.91 2685.33 1215.38 2675.58C1221.22 2671.92 1224.51 2612.72 1226.43 2541.17C1226.85 2525.69 1227.18 2509.81 1227.43 2493.53C1227.74 2474.34 1227.99 2454.9 1228.11 2436.02C1228.61 2351.24 1227.43 2276.58 1227.43 2276.58H963.396V2436.02V2493.53L964.762 2541.17C964.762 2541.17 809.486 2611.17 793.772 2623.78C778.058 2636.39 765.574 2677.38 779.735 2681.79Z" fill="#EB9481"/>
<path d="M779.735 2681.79C793.958 2686.51 1199.91 2685.33 1215.38 2675.58C1221.22 2671.92 1224.51 2612.72 1226.43 2541.17C1226.85 2525.69 1227.18 2509.81 1227.43 2493.53C1227.74 2474.34 1227.99 2454.9 1228.11 2436.02H963.396V2493.53L964.762 2541.17C964.762 2541.17 809.486 2611.17 793.772 2623.78C778.058 2636.39 765.574 2677.38 779.735 2681.79Z" fill="white"/>
<path d="M778.493 2682.41C787.748 2685.46 1192.27 2692.16 1216.56 2676.2C1223.64 2671.48 1227.12 2584.78 1228.98 2493.16H963.396L964.762 2541.05C964.762 2541.05 808.679 2611.42 792.778 2624.09C776.878 2636.76 764.27 2677.38 778.493 2682.41Z" fill="#2A4F96"/>
<path d="M784.331 2666.08C852.653 2664.15 1128.86 2663.03 1196.68 2666.39C1197.24 2666.39 1197.24 2666.82 1196.68 2666.82C1128.86 2670.18 852.715 2669.06 784.331 2667.2C782.841 2667.13 782.841 2666.08 784.331 2666.08Z" fill="#263238"/>
<path d="M954.825 2525.77C981.718 2520.61 1014.64 2524.71 1035.57 2543.78C1036.31 2544.53 1035.26 2545.65 1034.39 2545.4C1008.64 2537.19 982.095 2531.74 955.197 2529.12C954.753 2529.17 954.306 2529.04 953.957 2528.76C953.608 2528.49 953.383 2528.08 953.334 2527.63C953.285 2527.19 953.414 2526.74 953.693 2526.39C953.973 2526.04 954.38 2525.82 954.825 2525.77Z" fill="#263238"/>
<path d="M935.384 2537.51C962.34 2532.42 995.259 2536.45 1016.13 2555.58C1016.94 2556.33 1016.13 2557.45 1015.01 2557.2C989.177 2548.87 962.523 2543.36 935.508 2540.74C935.18 2540.62 934.894 2540.41 934.688 2540.13C934.481 2539.85 934.364 2539.51 934.35 2539.17C934.337 2538.82 934.428 2538.47 934.613 2538.18C934.797 2537.88 935.066 2537.65 935.384 2537.51V2537.51Z" fill="#263238"/>
<path d="M916.006 2549.31C942.899 2544.15 975.88 2548.25 996.749 2567.32C997.557 2568.07 996.439 2569.19 995.569 2568.94C969.823 2560.72 943.277 2555.27 916.378 2552.66C915.933 2552.71 915.487 2552.58 915.138 2552.3C914.788 2552.02 914.564 2551.62 914.515 2551.17C914.466 2550.73 914.595 2550.28 914.874 2549.93C915.154 2549.58 915.561 2549.36 916.006 2549.31Z" fill="#263238"/>
<path d="M896.565 2561.05C923.521 2555.96 956.44 2559.99 977.309 2579.12C978.116 2579.87 977.309 2580.99 976.191 2580.74C950.431 2572.5 923.861 2567.04 896.938 2564.46C896.524 2564.45 896.13 2564.28 895.828 2563.99C895.526 2563.71 895.335 2563.33 895.29 2562.92C895.245 2562.5 895.349 2562.09 895.583 2561.75C895.816 2561.4 896.165 2561.16 896.565 2561.05V2561.05Z" fill="#263238"/>
<path d="M917.061 2501.92C936.129 2516.7 960.974 2522.66 983.209 2530.86C983.72 2530.99 984.252 2530.99 984.765 2530.88C985.278 2530.76 985.758 2530.53 986.166 2530.2C986.575 2529.87 986.902 2529.45 987.122 2528.97C987.341 2528.49 987.448 2527.97 987.433 2527.45C987.543 2527.44 987.65 2527.42 987.747 2527.36C987.843 2527.31 987.925 2527.23 987.986 2527.14C988.047 2527.05 988.085 2526.95 988.097 2526.84C988.108 2526.73 988.094 2526.62 988.054 2526.51C979.803 2502.69 965.456 2481.45 946.44 2464.9C935.136 2455.52 915.385 2449 904.888 2463.6C894.391 2478.19 905.944 2493.35 917.061 2501.92ZM910.167 2480.3C905.323 2450.74 937.061 2466.21 945.135 2473.47C950.245 2478.25 955.018 2483.38 959.421 2488.81C968.299 2500.18 976.591 2512 984.265 2524.22C973.582 2519.56 962.589 2515.83 951.781 2511.79C939.049 2506.45 912.838 2496.58 910.167 2480.3V2480.3Z" fill="#263238"/>
<path d="M1077.87 2485.21C1071.28 2468.44 1050.54 2469.81 1037.31 2476.08C1014.68 2487.31 995.399 2504.3 981.408 2525.34C981.344 2525.42 981.303 2525.53 981.287 2525.64C981.272 2525.75 981.283 2525.86 981.32 2525.96C981.356 2526.06 981.417 2526.16 981.497 2526.23C981.578 2526.31 981.675 2526.36 981.781 2526.39C981.346 2528.44 982.588 2530.99 985.011 2530.74C1008.61 2528.38 1034.14 2528.81 1056.31 2519.25C1069.42 2513.72 1084.08 2501.05 1077.87 2485.21ZM1020.23 2519.87C1008.67 2521.3 997.122 2522.17 985.57 2524.03C996.135 2514.13 1007.21 2504.78 1018.74 2496.02C1024.37 2491.84 1030.29 2488.04 1036.44 2484.65C1046 2479.62 1080.66 2472.67 1068.61 2500.06C1061.97 2515.15 1034.08 2518.13 1020.23 2519.87Z" fill="#263238"/>
<path d="M1316.99 1113C1316.99 1113 1279.04 1451.63 1253.02 1671.44C1248.3 1711.13 1244.01 1746.97 1240.6 1776.16C1235.69 1815.66 1232.02 1843.18 1230.35 1852.12C1228.86 1859.76 1229.35 1890.19 1229.66 1932.86C1229.66 1956.9 1229.66 1984.85 1229.66 2014.85C1228.3 2130.68 1228.61 2284.22 1228.92 2380.49H963.396C961.719 2229.07 960.725 1926.65 976.563 1766.72C998.488 1544.67 1068.98 1113 1068.98 1113H1316.99Z" fill="#455A64"/>
<path d="M1229.42 1932.99C1229.1 1890.19 1228.61 1859.76 1230.1 1852.24C1240.04 1799.88 1317.05 1113.13 1317.05 1113.13H1105.01L1229.42 1932.99Z" fill="#263238"/>
<path d="M2146.54 1849.95C2146.54 1849.95 2137.66 1853.55 2121.69 1859.63C2107.78 1865.04 2088.4 1872.06 2064.86 1880.81L2055.67 1884.04L2053.99 1884.67L2048.22 1886.71C1886.73 1943.98 1569.22 2042.86 1424.01 1992.68C1278.79 1942.49 1073.02 1110.27 1068.98 1113H1420.96C1420.96 1113 1486.43 1281.88 1430.59 1388.15C1425.44 1397.97 1555.62 1744.67 1634.38 1735.17C1695.87 1727.71 1867.35 1663.37 1975.55 1630.07L1993.19 1624.67L2012.88 1618.46H2013.19L2046.73 1608.15L2069.34 1601.19L2146.54 1849.95Z" fill="#EB9481"/>
<path d="M2416.04 1961C2416.35 1946.03 2295.54 1558.46 2281.57 1546.6C2276.35 1542.06 2218.84 1556.41 2149.96 1575.67C2135.05 1579.76 2119.46 1583.49 2104.12 1588.71C2084.86 1595.29 1900.77 1655.29 1900.77 1655.29L1976.48 1911.06L2122.19 1861.37L2181.94 1841.06L2227.03 1825.78C2227.03 1825.78 2339.7 1953.42 2356.35 1964.79C2372.99 1976.15 2415.73 1975.91 2416.04 1961Z" fill="#EB9481"/>
<path d="M2416.04 1961C2416.35 1946.03 2295.54 1558.46 2281.57 1546.6C2276.35 1542.06 2218.84 1556.41 2149.96 1575.67C2135.05 1579.76 2119.46 1583.49 2104.12 1588.71C2084.86 1595.29 2065.17 1600.82 2046.73 1607.34C2069.71 1683.05 2102.32 1793.3 2122.19 1861.13L2181.94 1840.82L2227.03 1825.54C2227.03 1825.54 2339.7 1953.17 2356.35 1964.54C2372.99 1975.91 2415.73 1975.91 2416.04 1961Z" fill="white"/>
<path d="M2416.78 1961.99C2417.09 1946.96 2295.6 1557.22 2281.57 1545.29C2275.36 1539.77 2191.13 1562.19 2103.12 1587.65L2181.38 1841.37L2226.72 1825.97C2226.72 1825.97 2340.01 1954.42 2356.78 1965.84C2373.55 1977.27 2416.78 1977.02 2416.78 1961.99Z" fill="#2A4F96"/>
<path d="M2399.64 1961.31C2377.65 1896.47 2295.17 1632.87 2278.4 1567.16C2278.4 1566.6 2278.4 1566.47 2278.83 1567.16C2302 1630.94 2382.31 1895.16 2400.7 1961.06C2401.07 1962.37 2400.07 1962.68 2399.64 1961.31Z" fill="#263238"/>
<path d="M2215.3 1839.7C2202.5 1815.54 2196.66 1782.8 2209.08 1757.46C2209.52 1756.47 2210.95 1757.15 2210.95 1758.08C2210.61 1785.2 2213.23 1812.28 2218.77 1838.83C2218.89 1839.29 2218.82 1839.78 2218.57 1840.18C2218.33 1840.59 2217.93 1840.89 2217.47 1841C2217.01 1841.12 2216.52 1841.04 2216.11 1840.8C2215.7 1840.56 2215.41 1840.16 2215.3 1839.7V1839.7Z" fill="#263238"/>
<path d="M2232.25 1854.79C2219.46 1830.57 2213.62 1797.9 2226.04 1772.56C2226.54 1771.56 2227.9 1772.25 2227.9 1773.18C2227.61 1800.29 2230.23 1827.37 2235.73 1853.92C2235.85 1854.38 2235.77 1854.87 2235.53 1855.28C2235.28 1855.69 2234.89 1855.98 2234.43 1856.09C2233.96 1856.21 2233.48 1856.14 2233.07 1855.89C2232.66 1855.65 2232.37 1855.25 2232.25 1854.79V1854.79Z" fill="#263238"/>
<path d="M2249.08 1869.95C2236.29 1845.72 2230.45 1813.05 2242.87 1787.71C2243.37 1786.72 2244.74 1787.4 2244.74 1788.33C2244.47 1815.45 2247.09 1842.52 2252.56 1869.08C2252.68 1869.54 2252.6 1870.03 2252.36 1870.43C2252.11 1870.84 2251.72 1871.13 2251.26 1871.25C2250.8 1871.36 2250.31 1871.29 2249.9 1871.05C2249.49 1870.8 2249.2 1870.41 2249.08 1869.95V1869.95Z" fill="#263238"/>
<path d="M2266.16 1884.91C2253.37 1860.69 2247.53 1828.02 2259.95 1802.68C2260.45 1801.69 2261.82 1802.37 2261.82 1803.3C2261.54 1830.42 2264.17 1857.48 2269.64 1884.04C2269.76 1884.51 2269.68 1884.99 2269.44 1885.4C2269.2 1885.81 2268.8 1886.1 2268.34 1886.22C2267.88 1886.33 2267.39 1886.26 2266.98 1886.02C2266.57 1885.77 2266.28 1885.37 2266.16 1884.91V1884.91Z" fill="#263238"/>
<path d="M2211.01 1808.95C2210.52 1808.51 2209.93 1808.19 2209.3 1808.02C2208.66 1807.86 2207.99 1807.86 2207.35 1808.02C2207.28 1807.94 2207.19 1807.88 2207.09 1807.83C2207 1807.79 2206.89 1807.77 2206.79 1807.77C2206.68 1807.77 2206.58 1807.79 2206.48 1807.83C2206.38 1807.88 2206.3 1807.94 2206.23 1808.02L2204.3 1809.45H2203.93L2203.18 1810.01C2202.23 1810.71 2201.3 1811.46 2200.39 1812.24C2192.58 1818.63 2185.46 1825.81 2179.15 1833.67C2176.23 1837.27 2173.43 1841.06 2170.89 1844.91C2166.49 1851.48 2162.73 1858.45 2159.64 1865.72C2153.99 1879.26 2153.43 1900.01 2170.64 1905.78C2187.84 1911.56 2198.71 1896.03 2203.68 1882.86C2209 1866.25 2211.52 1848.87 2211.13 1831.44C2211.13 1831.44 2211.13 1831.44 2211.13 1831.44C2211.13 1824.73 2211.44 1818.08 2211.82 1811.56C2211.96 1811.1 2211.96 1810.6 2211.82 1810.13C2211.67 1809.67 2211.39 1809.26 2211.01 1808.95V1808.95ZM2203.43 1833.8C2203.43 1838.02 2202.87 1842.18 2202.56 1846.22C2201.51 1860.07 2199.83 1888.08 2185.05 1895.41C2158.22 1908.76 2163.62 1873.86 2168.22 1864.04C2171.28 1857.73 2174.76 1851.63 2178.65 1845.78C2179.71 1844.11 2180.82 1842.49 2181.94 1840.88C2188.71 1831.25 2196.29 1822.24 2203.68 1813.18L2204.74 1811.81C2204.74 1811.81 2204.74 1812.24 2204.74 1812.43C2204.71 1812.84 2204.71 1813.26 2204.74 1813.67C2204.05 1820.44 2203.62 1827.15 2203.25 1833.86L2203.43 1833.8Z" fill="#263238"/>
<path d="M2211.13 1809.2C2208.15 1802 2205.3 1794.48 2202.31 1787.03C2197.01 1771.76 2189.22 1757.47 2179.27 1744.73C2171.69 1735.79 2159.09 1727.22 2147.47 1730.69C2144.91 1731.42 2142.52 1732.67 2140.45 1734.36C2126.35 1745.54 2133.74 1764.98 2143.68 1775.79C2150.81 1783.44 2158.84 1790.2 2167.59 1795.91C2177.82 1802.8 2188.88 1808.35 2200.51 1812.43C2201.69 1812.87 2202.81 1813.24 2203.99 1813.55L2205.05 1813.86H2205.48L2207.1 1814.36C2207.21 1814.4 2207.33 1814.41 2207.44 1814.39C2207.56 1814.38 2207.67 1814.33 2207.77 1814.27C2207.86 1814.2 2207.94 1814.11 2208 1814.01C2208.06 1813.91 2208.09 1813.79 2208.09 1813.67C2208.62 1813.65 2209.13 1813.51 2209.59 1813.26C2210.05 1813 2210.45 1812.64 2210.75 1812.21C2211.04 1811.77 2211.23 1811.27 2211.3 1810.75C2211.37 1810.23 2211.31 1809.7 2211.13 1809.2ZM2203.18 1809.95C2191.08 1803.05 2179.35 1795.52 2168.03 1787.4L2163.93 1784.23C2159.76 1780.99 2155.77 1777.5 2152 1773.8C2145.11 1766.9 2130.64 1740.88 2149.83 1738.52C2152.29 1738.21 2154.77 1738.21 2157.22 1738.52C2173.56 1740.38 2184.67 1766.16 2190.39 1778.83C2194.99 1789.02 2199.02 1799.33 2203.93 1809.33C2204.13 1809.81 2204.36 1810.29 2204.61 1810.75L2203.18 1809.95Z" fill="#263238"/>
<path d="M2064.86 1880.81L2055.67 1884.04L2053.99 1884.67L2048.22 1886.71C1886.73 1943.98 1569.22 2042.86 1424.01 1992.68C1278.79 1942.49 1073.02 1110.27 1068.98 1113H1420.96C1420.96 1113 1486.43 1281.88 1430.59 1388.15C1425.44 1397.97 1555.62 1744.67 1634.38 1735.17C1695.87 1727.71 1867.35 1663.37 1975.55 1630.07L1993.19 1624.67L2064.86 1880.81Z" fill="#455A64"/>
<path d="M1062.15 790.154C1062.18 791.01 1062.51 791.828 1063.09 792.456C1063.68 793.085 1064.47 793.48 1065.32 793.57L1079.05 792.576C1087.12 756.738 1096.93 727.733 1094.76 738.789C1091.59 756.201 1090.86 773.969 1092.59 791.583L1119.67 789.16C1122.9 727.547 1131.03 681.088 1132.09 694.939C1135.5 750.838 1140.72 768.353 1146.68 786.862C1212.09 780.651 1297.74 772.204 1359.54 764.44C1362.58 730.155 1364.44 693.324 1365.75 695.684C1376.49 713.323 1382.08 740.217 1384.88 761.148C1404.5 758.54 1420.16 756.055 1429.66 754.006C1429.66 754.006 1430.84 725.435 1430.34 716.18C1429.25 692.433 1424.01 669.06 1414.88 647.113C1404.81 625.625 1392.6 605.211 1378.42 586.183L1378.05 585.748C1369.24 572.971 1361.94 559.214 1356.31 544.755V544.755C1352.4 534.148 1349.34 523.244 1347.18 512.147C1339.29 471.527 1313.39 439.043 1276.06 433.267C1199.79 374.2 1135.26 412.646 1121.16 468.111C1119.79 473.515 1118.61 479.664 1117.55 486.371C1113.52 511.216 1111.34 542.768 1108.24 567.115C1107.24 576.746 1105.67 586.308 1103.52 595.748C1091.16 641.337 1054.88 671.212 1062.15 790.154Z" fill="#263238"/>
<path d="M1292.58 441.838C1305.05 446.169 1316.18 453.659 1324.89 463.576C1333.6 473.493 1339.59 485.499 1342.27 498.421C1345.46 515.564 1350.74 532.251 1357.98 548.109C1366.82 563.31 1377.83 577.14 1390.65 589.164C1410.03 608.978 1424.38 629.412 1430.59 658.418C1436.8 687.423 1439.85 723.323 1433.88 752.515C1437.2 719.791 1434.23 686.734 1425.13 655.126C1416 623.387 1396.31 605.437 1375.75 583.078C1359.19 565.465 1347.5 543.846 1341.84 520.346C1338.23 505.812 1336.56 490.347 1329.41 476.869C1320.78 461.155 1306.25 452.459 1292.15 444.882C1289.54 444.074 1290.84 441.404 1292.58 441.838Z" fill="#263238"/>
<path d="M1068.98 647.61C1082.77 622.021 1097.68 599.723 1103.89 569.475C1109.6 541.898 1111.22 513.576 1117.06 485.875C1117.06 485.44 1117.8 485.502 1117.68 485.875C1109.48 534.445 1112.59 581.959 1089.29 625.126C1076.87 648.604 1063.77 670.467 1056.87 697.485C1049.95 725.796 1048.1 755.11 1051.41 784.067C1051.41 785.123 1050.29 785.185 1050.04 784.067C1040.18 737.767 1046.88 689.474 1068.98 647.61V647.61Z" fill="#263238"/>
<path d="M1176.25 777.297C1121.28 830.65 917.931 929.84 845.386 904.375C798.058 887.792 662.346 755.31 635.639 716.056C604.584 670.219 701.787 581.401 729.177 599.102C763.4 621.275 869.485 736.987 901.72 755.372C920.353 765.993 1050.29 723.447 1175.38 697.485C1223.89 687.361 1209.11 745.745 1176.25 777.297Z" fill="#EB9481"/>
<path d="M730.979 646.927C730.979 646.927 649.241 589.227 644.024 587.798C638.807 586.369 636.757 593.388 634.769 598.791C634.303 602.249 634.178 605.744 634.397 609.226C634.397 625.685 634.397 654.753 613.59 651.213C586.634 646.554 587.503 581.214 589.242 571.028C590.619 566.632 592.928 562.586 596.012 559.165C606.385 546.308 627.068 530.221 646.633 533.265C673.713 537.426 698.805 553.948 721.6 566.742L730.979 646.927Z" fill="#EB9481"/>
<path d="M730.979 646.927C730.979 646.927 649.241 589.227 644.024 587.798C638.807 586.369 636.757 593.388 634.769 598.791C634.303 602.249 634.178 605.744 634.397 609.226C620.67 591.462 605.577 571.96 596.012 559.165C606.385 546.308 627.068 530.221 646.632 533.265C673.713 537.426 698.805 553.948 721.6 566.742L730.979 646.927Z" fill="#263238"/>
<path d="M692.47 779.657C689.054 774.875 653.713 738.789 627.068 711.336C630.794 682.206 631.415 623.263 631.602 607.673C634.831 590.344 631.602 551.774 630.111 551.774C626.881 551.774 615.453 551.774 601.54 550.407C582.907 548.73 560.671 545.128 547.131 537.302C543.789 535.846 540.91 533.501 538.807 530.522C536.705 527.543 535.459 524.045 535.206 520.408C535.206 507.986 563.28 506.682 596.323 502.644C641.291 497.117 696.88 492.769 714.768 509.352C741.165 534.197 752.903 586.928 758.245 602.518C763.586 618.108 796.381 660.032 796.381 660.032C772.096 744.316 697.004 785.993 692.47 779.657Z" fill="#EB9481"/>
<path d="M461.17 502.272C461.17 502.272 520.424 522.52 582.658 540.78C644.893 559.041 770.481 625.375 771.164 630.716C771.847 636.058 632.906 595.127 574.087 569.91C515.269 544.693 457.382 515.439 457.382 515.439L461.17 502.272Z" fill="#455A64"/>
<path d="M460.115 501.154L501.542 513.265L492.847 534.942L454.711 516.06L460.115 501.154Z" fill="#EBEBEB"/>
<path d="M460.301 501.154C457.025 496.847 452.769 493.383 447.887 491.05C443.004 488.717 437.636 487.582 432.227 487.738C427.696 488.062 423.148 487.44 418.87 485.911C414.593 484.382 410.681 481.979 407.383 478.856C407.383 478.856 419.122 518.607 454.587 516.123L460.301 501.154Z" fill="#455A64"/>
<path d="M406.265 477.676C408.749 477.676 415.581 485.937 424.898 486.744C434.215 487.552 430.364 513.638 421.668 505.005C411.73 495.253 401.793 477.427 406.265 477.676Z" fill="#2A4F96"/>
<path d="M627.068 711.646C617.937 702.392 609.739 694.318 604.025 688.914C586.24 673.287 575.125 651.436 572.969 627.859C570.112 607.052 524.275 563.451 558.746 560.221C593.217 556.991 620.422 620.406 628.434 615.748C629.925 614.878 631.043 612.021 631.788 607.984C631.415 623.574 630.794 682.516 627.068 711.646Z" fill="#EB9481"/>
<path d="M632.782 596.68C632.782 595.872 632.223 595.997 632.099 596.68C632.099 599.537 630.173 612.394 627.254 612.394C622.037 612.394 603.963 586.68 594.46 577.239C593.901 576.742 593.155 577.239 593.714 577.86C596.385 580.221 604.397 591.462 606.447 594.133C610.36 599.351 621.167 615.996 627.689 615.996C632.037 616.369 633.092 599.972 632.782 596.68Z" fill="#263238"/>
<path d="M990.6 731.087L1018.12 817.11C1028.3 849.532 1037.74 879.22 1038.36 882.636C1088.01 855.267 1135.24 823.726 1179.54 788.353C1239.29 739.844 1233.02 699.162 1198.17 692.889C1192.88 692.025 1187.49 691.858 1182.15 692.392C1134.7 696.802 990.6 731.087 990.6 731.087Z" fill="#2A4F96"/>
<path d="M1089.29 740.466H1084.45C1083.25 740.499 1082.05 740.29 1080.93 739.853C1079.81 739.415 1078.78 738.757 1077.92 737.917C1077.06 737.078 1076.37 736.074 1075.9 734.964C1075.44 733.855 1075.19 732.663 1075.2 731.46C1075.12 729.867 1074.43 728.366 1073.27 727.267C1072.11 726.169 1070.58 725.557 1068.98 725.559H1063.89V722.454H1068.98C1070.17 722.445 1071.35 722.672 1072.45 723.121C1073.55 723.57 1074.55 724.232 1075.39 725.069C1076.24 725.906 1076.9 726.902 1077.36 727.999C1077.82 729.095 1078.05 730.272 1078.05 731.46C1078 732.289 1078.12 733.121 1078.41 733.9C1078.71 734.678 1079.16 735.385 1079.75 735.973C1080.34 736.561 1081.04 737.017 1081.82 737.31C1082.6 737.603 1083.43 737.726 1084.26 737.671H1089.11L1089.29 740.466ZM1036.19 794.75C1037.33 793.703 1038.83 793.122 1040.38 793.122C1041.93 793.122 1043.43 793.703 1044.57 794.75C1046.29 796.394 1048.57 797.312 1050.94 797.312C1053.31 797.312 1055.6 796.394 1057.31 794.75L1060.91 791.086L1058.74 788.912L1055.07 792.514C1053.93 793.544 1052.45 794.114 1050.91 794.114C1049.37 794.114 1047.89 793.544 1046.75 792.514C1045.07 790.933 1042.85 790.053 1040.54 790.053C1038.23 790.053 1036.01 790.933 1034.33 792.514L1030.85 795.992L1033.08 798.166L1036.19 794.75Z" fill="white"/>
<path d="M1018.12 817.11C1028.3 849.532 1037.74 879.22 1038.36 882.636C1088.01 855.267 1135.24 823.726 1179.54 788.353C1239.29 739.844 1233.02 699.162 1198.17 692.889L1018.12 817.11Z" fill="#263238"/>
<path d="M1525.81 1610.51H975.818L978.986 1590.76L1047.87 1159.84L1048.8 1154.18L1081.16 951.579C1081.16 951.579 1052.71 908.537 1061.34 869.655C1065.69 849.966 1111.03 771.334 1135.13 739.223C1142.81 728.486 1151.35 718.391 1160.66 709.038C1187.12 684.193 1222.77 681.026 1248.17 684.752C1252.65 685.447 1257.06 686.549 1261.34 688.044C1297.86 700.466 1342.77 743.323 1366.93 808.042C1375.31 830.526 1383.64 856.736 1391.77 885.742C1392.14 887.17 1392.52 888.599 1392.95 890.028C1416.99 976.299 1439.97 1086.11 1459.78 1193.87C1471.03 1254.8 1481.27 1315.11 1490.16 1370.08L1491.27 1377.35C1512.58 1510.51 1525.81 1610.51 1525.81 1610.51Z" fill="#2A4F96"/>
<path d="M1252.27 1136.67H1247.37C1244.98 1136.67 1242.69 1135.72 1241 1134.03C1239.31 1132.34 1238.36 1130.05 1238.36 1127.66C1238.36 1126.02 1237.7 1124.44 1236.54 1123.27C1235.38 1122.11 1233.8 1121.45 1232.15 1121.45H1226.99V1118.41H1232.15C1234.54 1118.42 1236.83 1119.39 1238.52 1121.09C1240.21 1122.78 1241.15 1125.08 1241.15 1127.48C1241.23 1129.02 1241.88 1130.47 1242.97 1131.56C1244.06 1132.66 1245.51 1133.3 1247.05 1133.38H1251.96L1252.27 1136.67ZM1329.41 1409.64H1324.57C1323.03 1409.57 1321.57 1408.92 1320.48 1407.83C1319.39 1406.74 1318.74 1405.28 1318.67 1403.74C1318.67 1401.36 1317.72 1399.06 1316.03 1397.38C1314.34 1395.69 1312.05 1394.74 1309.66 1394.74H1304.51V1397.84H1309.66C1311.2 1397.92 1312.66 1398.56 1313.75 1399.66C1314.84 1400.75 1315.49 1402.2 1315.56 1403.74C1315.56 1406.13 1316.51 1408.42 1318.2 1410.11C1319.89 1411.8 1322.18 1412.75 1324.57 1412.75H1329.41V1409.64ZM1425.5 1148.78H1420.65C1419.06 1148.7 1417.56 1148.01 1416.46 1146.85C1415.36 1145.7 1414.75 1144.16 1414.75 1142.57C1414.74 1140.17 1413.77 1137.88 1412.08 1136.2C1410.38 1134.51 1408.08 1133.56 1405.68 1133.56H1400.53V1136.67H1405.68C1407.28 1136.67 1408.81 1137.28 1409.97 1138.38C1411.13 1139.47 1411.82 1140.98 1411.9 1142.57C1411.9 1144.96 1412.84 1147.25 1414.53 1148.94C1416.22 1150.63 1418.51 1151.58 1420.9 1151.58H1425.75L1425.5 1148.78ZM1179.91 1008.35H1175.01C1173.47 1008.27 1172.01 1007.63 1170.92 1006.54C1169.83 1005.45 1169.18 1003.99 1169.11 1002.45C1169.11 1000.06 1168.16 997.768 1166.47 996.08C1164.78 994.391 1162.49 993.442 1160.1 993.442H1154.94V996.547H1160.1C1161.69 996.545 1163.23 997.157 1164.39 998.255C1165.54 999.354 1166.23 1000.85 1166.31 1002.45C1166.31 1004.84 1167.26 1007.13 1168.95 1008.82C1170.64 1010.5 1172.93 1011.45 1175.32 1011.45H1180.22L1179.91 1008.35ZM1089.29 892.202H1084.45C1082.85 892.204 1081.32 891.592 1080.16 890.493C1079.01 889.395 1078.32 887.894 1078.24 886.301C1078.24 885.113 1078 883.937 1077.55 882.84C1077.09 881.743 1076.42 880.748 1075.58 879.911C1074.74 879.074 1073.74 878.412 1072.64 877.963C1071.54 877.514 1070.36 877.287 1069.17 877.295H1064.08V880.401H1069.17C1070.82 880.401 1072.4 881.055 1073.56 882.22C1074.73 883.385 1075.38 884.964 1075.38 886.612C1075.38 889 1076.33 891.291 1078.02 892.98C1079.71 894.669 1082 895.618 1084.39 895.618H1089.23L1089.29 892.202ZM1331.09 1005.18H1326.18C1324.59 1005.18 1323.05 1004.57 1321.9 1003.47C1320.74 1002.37 1320.05 1000.87 1319.97 999.28C1319.97 996.892 1319.02 994.601 1317.33 992.912C1315.65 991.223 1313.35 990.274 1310.97 990.274H1305.81V993.38H1311.21C1312.81 993.459 1314.31 994.149 1315.41 995.305C1316.51 996.461 1317.12 997.996 1317.12 999.591C1317.12 1001.98 1318.06 1004.27 1319.75 1005.96C1321.44 1007.65 1323.73 1008.6 1326.12 1008.6H1331.03L1331.09 1005.18ZM1241.65 847.171H1236.68C1235.14 847.096 1233.68 846.45 1232.59 845.36C1231.5 844.269 1230.86 842.812 1230.78 841.271C1230.78 838.882 1229.83 836.592 1228.14 834.903C1226.46 833.214 1224.16 832.265 1221.78 832.265H1216.62V835.37H1221.78C1223.37 835.45 1224.87 836.14 1225.97 837.296C1227.07 838.452 1227.68 839.987 1227.68 841.581C1227.68 843.97 1228.63 846.261 1230.31 847.95C1232 849.639 1234.29 850.588 1236.68 850.588H1241.59L1241.65 847.171ZM1142.77 1248.84H1137.93C1136.33 1248.76 1134.83 1248.07 1133.73 1246.91C1132.64 1245.76 1132.02 1244.22 1132.03 1242.63C1132.01 1240.23 1131.05 1237.94 1129.35 1236.26C1127.65 1234.57 1125.35 1233.62 1122.96 1233.62H1117.8V1236.73H1122.96C1124.61 1236.73 1126.19 1237.38 1127.35 1238.55C1128.51 1239.71 1129.17 1241.29 1129.17 1242.94C1129.17 1245.33 1130.12 1247.63 1131.8 1249.33C1133.49 1251.03 1135.78 1251.99 1138.18 1252.01H1143.02L1142.77 1248.84ZM1268.23 1507.72H1263.33C1261.68 1507.72 1260.1 1507.06 1258.94 1505.9C1257.77 1504.73 1257.12 1503.15 1257.12 1501.51C1257.12 1499.12 1256.17 1496.83 1254.48 1495.14C1252.79 1493.45 1250.5 1492.5 1248.11 1492.5H1242.96V1495.61H1248.11C1249.65 1495.68 1251.11 1496.33 1252.2 1497.42C1253.29 1498.51 1253.94 1499.97 1254.01 1501.51C1254.01 1503.89 1254.96 1506.18 1256.65 1507.87C1258.34 1509.56 1260.63 1510.51 1263.02 1510.51H1267.92L1268.23 1507.72ZM1431.15 1595.85H1426.24C1424.65 1595.77 1423.15 1595.08 1422.05 1593.93C1420.95 1592.77 1420.34 1591.24 1420.34 1589.64C1420.34 1587.25 1419.39 1584.96 1417.71 1583.27C1416.02 1581.58 1413.73 1580.63 1411.34 1580.63H1406.18V1583.74H1411.34C1412.88 1583.82 1414.34 1584.46 1415.43 1585.55C1416.52 1586.64 1417.16 1588.1 1417.24 1589.64C1417.24 1592.03 1418.18 1594.33 1419.87 1596.03C1421.56 1597.73 1423.85 1598.69 1426.24 1598.71H1431.15V1595.85ZM1088.8 1534.55H1083.89C1082.3 1534.55 1080.76 1533.94 1079.6 1532.84C1078.45 1531.74 1077.76 1530.24 1077.68 1528.65C1077.68 1526.26 1076.73 1523.97 1075.04 1522.28C1073.35 1520.59 1071.06 1519.64 1068.67 1519.64H1063.52V1522.75H1068.98C1070.52 1522.82 1071.98 1523.47 1073.07 1524.56C1074.16 1525.65 1074.81 1527.11 1074.88 1528.65C1074.88 1531.04 1075.83 1533.33 1077.52 1535.02C1079.21 1536.71 1081.5 1537.65 1083.89 1537.65H1088.8V1534.55ZM1226.5 1365.98H1221.59C1220.05 1365.91 1218.59 1365.26 1217.5 1364.17C1216.41 1363.08 1215.76 1361.62 1215.69 1360.08C1215.69 1357.69 1214.74 1355.4 1213.05 1353.71C1211.36 1352.02 1209.07 1351.07 1206.68 1351.07H1201.53V1354.18H1206.68C1208.28 1354.18 1209.81 1354.79 1210.97 1355.89C1212.12 1356.99 1212.81 1358.49 1212.89 1360.08C1212.89 1362.47 1213.84 1364.76 1215.53 1366.45C1217.22 1368.14 1219.51 1369.09 1221.9 1369.09H1226.81L1226.5 1365.98ZM1076.31 1390.82H1071.41C1069.87 1390.75 1068.41 1390.1 1067.32 1389.01C1066.23 1387.92 1065.58 1386.46 1065.51 1384.92C1065.51 1382.53 1064.56 1380.23 1062.87 1378.53C1061.18 1376.84 1058.89 1375.87 1056.5 1375.86H1051.34V1378.96H1056.56C1058.15 1379.04 1059.66 1379.73 1060.75 1380.89C1061.85 1382.04 1062.46 1383.58 1062.46 1385.17C1062.46 1387.56 1063.41 1389.85 1065.1 1391.54C1066.79 1393.23 1069.08 1394.18 1071.47 1394.18H1076.38L1076.31 1390.82ZM1295.63 1252.38H1290.72C1289.18 1252.31 1287.72 1251.66 1286.63 1250.57C1285.54 1249.48 1284.89 1248.02 1284.82 1246.48C1284.82 1244.09 1283.87 1241.8 1282.18 1240.11C1280.49 1238.42 1278.2 1237.47 1275.81 1237.47H1270.66V1240.58H1275.81C1277.4 1240.66 1278.91 1241.35 1280 1242.5C1281.1 1243.66 1281.71 1245.2 1281.71 1246.79C1281.71 1249.18 1282.66 1251.47 1284.35 1253.16C1286.04 1254.85 1288.33 1255.8 1290.72 1255.8H1295.63V1252.38ZM1487.67 1438.71H1482.76C1481.17 1438.63 1479.67 1437.94 1478.57 1436.79C1477.47 1435.63 1476.86 1434.1 1476.86 1432.5C1476.85 1430.12 1475.89 1427.84 1474.21 1426.15C1472.52 1424.47 1470.24 1423.51 1467.86 1423.49H1462.7V1426.6H1467.86C1469.4 1426.68 1470.86 1427.32 1471.95 1428.41C1473.04 1429.5 1473.68 1430.96 1473.76 1432.5C1473.76 1434.9 1474.7 1437.19 1476.39 1438.89C1478.08 1440.59 1480.37 1441.55 1482.76 1441.57H1487.67V1438.71ZM1144.26 1078.04C1145.4 1077.01 1146.89 1076.44 1148.42 1076.44C1149.96 1076.44 1151.44 1077.01 1152.58 1078.04C1154.27 1079.62 1156.49 1080.5 1158.8 1080.5C1161.1 1080.5 1163.33 1079.62 1165.01 1078.04L1168.67 1074.37L1166.5 1072.2L1162.83 1075.86C1161.69 1076.91 1160.19 1077.49 1158.64 1077.49C1157.09 1077.49 1155.59 1076.91 1154.45 1075.86C1152.74 1074.22 1150.45 1073.3 1148.08 1073.3C1145.71 1073.3 1143.43 1074.22 1141.72 1075.86L1138.3 1079.28L1140.47 1081.45L1144.26 1078.04ZM1088.36 984.87C1089.5 983.84 1090.99 983.27 1092.52 983.27C1094.06 983.27 1095.54 983.84 1096.69 984.87C1097.52 985.714 1098.51 986.383 1099.6 986.84C1100.69 987.297 1101.87 987.532 1103.05 987.532C1104.24 987.532 1105.41 987.297 1106.5 986.84C1107.59 986.383 1108.59 985.714 1109.42 984.87L1113.08 981.268L1110.91 979.032L1107.24 982.697C1106.1 983.727 1104.62 984.297 1103.08 984.297C1101.55 984.297 1100.06 983.727 1098.92 982.697C1097.2 981.049 1094.91 980.129 1092.52 980.129C1090.14 980.129 1087.85 981.049 1086.13 982.697L1082.71 986.175L1084.88 988.349L1088.36 984.87ZM1369.79 1240.52C1370.93 1239.49 1372.41 1238.92 1373.95 1238.92C1375.48 1238.92 1376.97 1239.49 1378.11 1240.52C1379.8 1242.07 1382.02 1242.93 1384.32 1242.93C1386.62 1242.93 1388.83 1242.07 1390.53 1240.52L1394.19 1236.85L1392.02 1234.68L1388.36 1238.34C1387.21 1239.37 1385.73 1239.94 1384.19 1239.94C1382.66 1239.94 1381.17 1239.37 1380.03 1238.34C1379.2 1237.5 1378.2 1236.83 1377.1 1236.37C1376 1235.91 1374.83 1235.68 1373.64 1235.68C1372.45 1235.68 1371.27 1235.91 1370.17 1236.37C1369.07 1236.83 1368.08 1237.5 1367.24 1238.34L1363.82 1241.76L1366 1244L1369.79 1240.52ZM1228.98 938.225C1230.12 937.195 1231.6 936.625 1233.14 936.625C1234.68 936.625 1236.16 937.195 1237.3 938.225C1239.02 939.869 1241.3 940.787 1243.67 940.787C1246.04 940.787 1248.32 939.869 1250.04 938.225L1253.7 934.561L1251.53 932.387L1247.86 935.989C1246.72 937.037 1245.22 937.618 1243.67 937.618C1242.12 937.618 1240.62 937.037 1239.48 935.989C1237.75 934.374 1235.48 933.475 1233.11 933.475C1230.75 933.475 1228.47 934.374 1226.74 935.989L1223.33 939.468L1225.5 941.641L1228.98 938.225ZM1196.56 744.006C1197.7 742.958 1199.2 742.377 1200.75 742.377C1202.3 742.377 1203.8 742.958 1204.94 744.006C1206.64 745.679 1208.93 746.616 1211.31 746.616C1213.69 746.616 1215.98 745.679 1217.68 744.006L1221.34 740.341L1219.11 738.167L1215.5 741.77C1214.36 742.817 1212.86 743.398 1211.31 743.398C1209.76 743.398 1208.26 742.817 1207.12 741.77C1205.44 740.189 1203.21 739.309 1200.91 739.309C1198.6 739.309 1196.38 740.189 1194.7 741.77L1191.22 745.248L1193.45 747.422L1196.56 744.006ZM1133.14 849.904C1134.29 848.874 1135.77 848.304 1137.31 848.304C1138.84 848.304 1140.33 848.874 1141.47 849.904C1142.3 850.748 1143.29 851.417 1144.38 851.874C1145.48 852.331 1146.65 852.566 1147.83 852.566C1149.02 852.566 1150.19 852.331 1151.28 851.874C1152.38 851.417 1153.37 850.748 1154.2 849.904L1157.86 846.302L1155.69 844.066L1152.03 847.73C1150.88 848.778 1149.39 849.359 1147.83 849.359C1146.28 849.359 1144.79 848.778 1143.64 847.73C1141.96 846.15 1139.74 845.269 1137.43 845.269C1135.12 845.269 1132.9 846.15 1131.22 847.73L1127.8 851.209L1129.98 853.382L1133.14 849.904ZM1233.76 1041.27C1233.84 1039.73 1234.48 1038.27 1235.57 1037.18C1236.67 1036.09 1238.12 1035.44 1239.66 1035.37C1242.05 1035.37 1244.34 1034.42 1246.03 1032.73C1247.72 1031.04 1248.67 1028.75 1248.67 1026.36V1021.21H1245.56V1026.36C1245.57 1027.96 1244.95 1029.49 1243.86 1030.65C1242.76 1031.8 1241.26 1032.49 1239.66 1032.57C1237.28 1032.57 1234.98 1033.52 1233.3 1035.21C1231.61 1036.9 1230.66 1039.19 1230.66 1041.58V1046.48H1233.76V1041.27ZM1200.66 1286.11C1200.74 1284.51 1201.43 1283.01 1202.58 1281.91C1203.74 1280.82 1205.27 1280.2 1206.87 1280.21C1209.26 1280.21 1211.55 1279.26 1213.24 1277.57C1214.93 1275.88 1215.88 1273.59 1215.88 1271.2V1266.04H1212.77V1271.2C1212.77 1272.79 1212.16 1274.33 1211.06 1275.49C1209.96 1276.64 1208.46 1277.33 1206.87 1277.41C1205.69 1277.37 1204.51 1277.56 1203.4 1277.98C1202.29 1278.39 1201.27 1279.02 1200.41 1279.83C1199.54 1280.64 1198.85 1281.61 1198.36 1282.68C1197.87 1283.76 1197.59 1284.92 1197.55 1286.11V1291.01H1200.66V1286.11ZM1373.33 1468.84C1373.41 1467.24 1374.09 1465.74 1375.25 1464.64C1376.41 1463.54 1377.94 1462.93 1379.54 1462.94C1381.93 1462.94 1384.22 1461.99 1385.9 1460.3C1387.59 1458.61 1388.54 1456.32 1388.54 1453.93V1448.77H1385.44V1453.8C1385.44 1455.4 1384.83 1456.93 1383.73 1458.09C1382.63 1459.25 1381.13 1459.94 1379.54 1460.02C1377.14 1460.02 1374.84 1460.96 1373.15 1462.65C1371.45 1464.34 1370.48 1466.63 1370.47 1469.02V1473.93H1373.57L1373.33 1468.84ZM1492.76 1587.84C1492.84 1586.3 1493.48 1584.84 1494.58 1583.75C1495.67 1582.66 1497.12 1582.01 1498.66 1581.94C1501.05 1581.94 1503.34 1580.99 1505.03 1579.3C1506.72 1577.61 1507.67 1575.32 1507.67 1572.93V1567.78H1504.56V1572.93C1504.49 1574.53 1503.8 1576.03 1502.64 1577.13C1501.48 1578.22 1499.95 1578.84 1498.35 1578.83C1495.97 1578.83 1493.67 1579.78 1491.99 1581.47C1490.3 1583.16 1489.35 1585.45 1489.35 1587.84V1592.75H1492.45L1492.76 1587.84ZM1449.29 1243.31C1449.24 1242.51 1449.35 1241.7 1449.62 1240.95C1449.9 1240.19 1450.33 1239.5 1450.88 1238.92C1451.43 1238.33 1452.1 1237.87 1452.84 1237.56C1453.58 1237.25 1454.38 1237.09 1455.19 1237.1C1457.58 1237.08 1459.87 1236.12 1461.56 1234.42C1463.25 1232.72 1464.19 1230.43 1464.19 1228.03V1222.88H1461.09V1228.03C1461.09 1229.63 1460.48 1231.16 1459.38 1232.32C1458.28 1233.47 1456.78 1234.16 1455.19 1234.24C1452.8 1234.24 1450.51 1235.19 1448.82 1236.88C1447.13 1238.57 1446.18 1240.86 1446.18 1243.25V1248.09H1449.29V1243.31ZM1065.32 1295.05C1065.4 1293.46 1066.09 1291.96 1067.24 1290.86C1068.4 1289.76 1069.94 1289.15 1071.53 1289.15C1073.92 1289.15 1076.21 1288.2 1077.9 1286.51C1079.59 1284.82 1080.54 1282.53 1080.54 1280.14V1274.99H1077.43V1279.9C1077.48 1280.7 1077.37 1281.5 1077.09 1282.26C1076.82 1283.02 1076.39 1283.71 1075.84 1284.29C1075.28 1284.87 1074.61 1285.34 1073.87 1285.65C1073.13 1285.96 1072.33 1286.12 1071.53 1286.11C1069.14 1286.11 1066.85 1287.06 1065.16 1288.74C1063.47 1290.43 1062.52 1292.72 1062.52 1295.11V1300.02H1065.63L1065.32 1295.05ZM1072.77 1074.93C1072.85 1073.39 1073.49 1071.93 1074.58 1070.84C1075.68 1069.75 1077.13 1069.11 1078.67 1069.03C1081.05 1069.01 1083.33 1068.06 1085 1066.37C1086.68 1064.68 1087.62 1062.4 1087.62 1060.02V1054.87H1084.51V1060.02C1084.51 1061.67 1083.86 1063.25 1082.69 1064.42C1081.53 1065.58 1079.95 1066.24 1078.3 1066.24C1075.91 1066.24 1073.62 1067.18 1071.93 1068.87C1070.24 1070.56 1069.29 1072.85 1069.29 1075.24V1080.15H1072.4L1072.77 1074.93ZM1153.08 932.076C1153.08 930.482 1153.69 928.947 1154.79 927.791C1155.89 926.635 1157.39 925.945 1158.98 925.865C1161.37 925.865 1163.66 924.917 1165.35 923.228C1167.04 921.539 1167.99 919.248 1167.99 916.859V911.704H1164.88V916.859C1164.81 918.4 1164.16 919.857 1163.07 920.948C1161.98 922.039 1160.52 922.685 1158.98 922.76C1156.59 922.76 1154.3 923.709 1152.61 925.398C1150.92 927.087 1149.98 929.377 1149.98 931.766V936.673H1153.08V932.076ZM1122.71 788.166C1122.79 786.574 1123.48 785.072 1124.63 783.974C1125.79 782.876 1127.33 782.264 1128.92 782.266C1131.31 782.25 1133.61 781.287 1135.29 779.588C1136.98 777.889 1137.93 775.592 1137.93 773.198V768.043H1134.82V773.198C1134.82 774.793 1134.21 776.327 1133.11 777.483C1132.01 778.64 1130.51 779.329 1128.92 779.409C1126.53 779.409 1124.24 780.358 1122.55 782.047C1120.86 783.736 1119.91 786.026 1119.91 788.415V793.259H1123.02L1122.71 788.166ZM1131.53 1153.31C1131.53 1151.72 1132.14 1150.18 1133.24 1149.03C1134.34 1147.87 1135.84 1147.18 1137.43 1147.1C1139.82 1147.1 1142.11 1146.15 1143.8 1144.47C1145.49 1142.78 1146.44 1140.49 1146.44 1138.1V1132.94H1143.52V1138.1C1143.44 1139.64 1142.8 1141.1 1141.7 1142.19C1140.61 1143.28 1139.16 1143.92 1137.62 1144C1135.23 1144 1132.94 1144.95 1131.25 1146.64C1129.56 1148.32 1128.61 1150.62 1128.61 1153V1157.91H1131.72L1131.53 1153.31ZM1325.13 1183.07C1325.13 1181.47 1325.74 1179.94 1326.84 1178.78C1327.93 1177.62 1329.44 1176.93 1331.03 1176.85C1333.42 1176.85 1335.71 1175.91 1337.4 1174.22C1339.09 1172.53 1340.03 1170.24 1340.03 1167.85V1162.69H1336.93V1168.1C1336.85 1169.64 1336.21 1171.09 1335.12 1172.19C1334.03 1173.28 1332.57 1173.92 1331.03 1174C1328.64 1174 1326.35 1174.95 1324.66 1176.63C1322.97 1178.32 1322.02 1180.61 1322.02 1183V1187.91H1325.13V1183.07ZM1146.19 1431.51C1146.26 1429.97 1146.91 1428.51 1148 1427.42C1149.09 1426.33 1150.55 1425.68 1152.09 1425.61C1154.48 1425.61 1156.77 1424.66 1158.46 1422.97C1160.14 1421.28 1161.09 1418.99 1161.09 1416.6V1411.45H1157.99V1416.54C1157.91 1418.13 1157.22 1419.63 1156.06 1420.73C1154.91 1421.83 1153.37 1422.44 1151.78 1422.44C1149.39 1422.44 1147.1 1423.39 1145.41 1425.08C1143.72 1426.77 1142.77 1429.06 1142.77 1431.44V1436.35H1145.88L1146.19 1431.51ZM1009.11 1497.28C1009.11 1495.69 1009.72 1494.15 1010.82 1493C1011.92 1491.84 1013.42 1491.15 1015.01 1491.07C1017.4 1491.07 1019.69 1490.12 1021.38 1488.43C1023.07 1486.74 1024.02 1484.45 1024.02 1482.06V1476.91H1020.91V1482.06C1020.84 1483.61 1020.19 1485.06 1019.1 1486.15C1018.01 1487.24 1016.55 1487.89 1015.01 1487.97C1012.62 1487.97 1010.33 1488.91 1008.64 1490.6C1006.95 1492.29 1006 1494.58 1006 1496.97V1501.88H1009.11V1497.28ZM1188.17 1571.81C1188.25 1570.27 1188.9 1568.82 1189.99 1567.73C1191.08 1566.64 1192.53 1565.99 1194.07 1565.91C1196.46 1565.91 1198.75 1564.97 1200.44 1563.28C1202.13 1561.59 1203.08 1559.3 1203.08 1556.91V1551.75H1199.97V1556.91C1199.9 1558.5 1199.21 1560 1198.05 1561.1C1196.89 1562.2 1195.36 1562.81 1193.76 1562.81C1191.38 1562.81 1189.08 1563.76 1187.4 1565.45C1185.71 1567.14 1184.76 1569.43 1184.76 1571.81V1576.72H1187.86L1188.17 1571.81ZM1389.97 1324.12C1389.97 1322.52 1390.58 1320.99 1391.68 1319.83C1392.78 1318.68 1394.28 1317.99 1395.87 1317.91C1397.06 1317.91 1398.24 1317.67 1399.33 1317.22C1400.43 1316.76 1401.42 1316.09 1402.26 1315.25C1403.1 1314.4 1403.76 1313.4 1404.21 1312.3C1404.66 1311.2 1404.89 1310.03 1404.88 1308.84V1303.68H1401.77V1308.84C1401.77 1310.43 1401.16 1311.97 1400.06 1313.12C1398.97 1314.28 1397.46 1314.97 1395.87 1315.05C1393.48 1315.05 1391.19 1316 1389.5 1317.69C1387.81 1319.38 1386.87 1321.67 1386.87 1324.06V1328.9H1389.97V1324.12ZM1307.61 1081.14C1308.76 1080.09 1310.25 1079.51 1311.8 1079.51C1313.36 1079.51 1314.85 1080.09 1316 1081.14C1316.83 1081.98 1317.82 1082.65 1318.91 1083.11C1320.01 1083.57 1321.18 1083.8 1322.36 1083.8C1323.55 1083.8 1324.72 1083.57 1325.81 1083.11C1326.91 1082.65 1327.9 1081.98 1328.73 1081.14L1332.21 1077.66L1329.97 1075.49L1326.56 1078.97C1325.41 1080.02 1323.92 1080.6 1322.36 1080.6C1320.81 1080.6 1319.32 1080.02 1318.17 1078.97C1317.34 1078.12 1316.35 1077.46 1315.26 1077C1314.16 1076.54 1312.99 1076.31 1311.8 1076.31C1310.62 1076.31 1309.45 1076.54 1308.35 1077C1307.26 1077.46 1306.27 1078.12 1305.44 1078.97L1301.77 1082.57L1303.95 1084.81L1307.61 1081.14ZM1197.18 1192.2C1198.32 1191.15 1199.82 1190.57 1201.37 1190.57C1202.92 1190.57 1204.42 1191.15 1205.56 1192.2C1207.26 1193.75 1209.48 1194.61 1211.78 1194.61C1214.08 1194.61 1216.29 1193.75 1217.99 1192.2L1221.4 1188.72L1219.23 1186.54L1215.75 1190.02C1214.61 1191.05 1213.13 1191.62 1211.59 1191.62C1210.05 1191.62 1208.57 1191.05 1207.43 1190.02C1206.6 1189.18 1205.61 1188.51 1204.51 1188.05C1203.42 1187.59 1202.25 1187.36 1201.06 1187.36C1199.88 1187.36 1198.7 1187.59 1197.61 1188.05C1196.52 1188.51 1195.53 1189.18 1194.7 1190.02L1191.03 1193.62L1193.2 1195.86L1197.18 1192.2ZM1120.66 1342.88C1121.8 1341.83 1123.3 1341.25 1124.85 1341.25C1126.4 1341.25 1127.9 1341.83 1129.04 1342.88C1129.88 1343.72 1130.87 1344.39 1131.96 1344.85C1133.05 1345.3 1134.23 1345.54 1135.41 1345.54C1136.6 1345.54 1137.77 1345.3 1138.86 1344.85C1139.95 1344.39 1140.95 1343.72 1141.78 1342.88L1145.26 1339.4L1143.02 1337.22L1139.6 1340.7C1138.46 1341.75 1136.96 1342.33 1135.41 1342.33C1133.86 1342.33 1132.36 1341.75 1131.22 1340.7C1130.39 1339.86 1129.4 1339.19 1128.3 1338.73C1127.21 1338.27 1126.04 1338.04 1124.85 1338.04C1123.67 1338.04 1122.49 1338.27 1121.4 1338.73C1120.31 1339.19 1119.32 1339.86 1118.49 1340.7L1114.82 1344.3L1117.06 1346.54L1120.66 1342.88ZM1153.76 1499.46C1154.91 1498.43 1156.39 1497.86 1157.93 1497.86C1159.46 1497.86 1160.95 1498.43 1162.09 1499.46C1163.78 1501.01 1166 1501.87 1168.3 1501.87C1170.6 1501.87 1172.81 1501.01 1174.51 1499.46L1177.99 1495.98L1175.81 1493.8L1172.34 1497.22C1171.8 1497.78 1171.15 1498.23 1170.44 1498.53C1169.72 1498.83 1168.95 1498.99 1168.17 1498.99C1167.4 1498.99 1166.63 1498.83 1165.91 1498.53C1165.2 1498.23 1164.55 1497.78 1164.01 1497.22C1162.31 1495.54 1160.01 1494.6 1157.62 1494.6C1155.22 1494.6 1152.93 1495.54 1151.22 1497.22L1147.62 1500.88L1149.79 1503.12L1153.76 1499.46ZM1261.53 1591.19C1262.67 1590.15 1264.17 1589.56 1265.72 1589.56C1267.27 1589.56 1268.77 1590.15 1269.91 1591.19C1271.63 1592.82 1273.91 1593.73 1276.28 1593.73C1278.65 1593.73 1280.92 1592.82 1282.64 1591.19L1286.12 1587.72L1283.89 1585.54L1280.47 1588.96C1279.33 1590 1277.83 1590.59 1276.28 1590.59C1274.73 1590.59 1273.23 1590 1272.09 1588.96C1270.39 1587.28 1268.1 1586.35 1265.72 1586.35C1263.34 1586.35 1261.05 1587.28 1259.35 1588.96L1255.69 1592.62L1257.92 1594.8L1261.53 1591.19ZM1302.02 1327.47C1303.17 1326.42 1304.66 1325.84 1306.22 1325.84C1307.77 1325.84 1309.26 1326.42 1310.41 1327.47C1312.13 1329.1 1314.41 1330.01 1316.77 1330.01C1319.14 1330.01 1321.42 1329.1 1323.14 1327.47L1326.56 1323.99L1324.38 1321.82L1320.97 1325.24C1319.82 1326.28 1318.33 1326.86 1316.77 1326.86C1315.22 1326.86 1313.73 1326.28 1312.58 1325.24C1310.88 1323.56 1308.6 1322.63 1306.22 1322.63C1303.83 1322.63 1301.55 1323.56 1299.85 1325.24L1296.18 1328.9L1298.42 1331.07L1302.02 1327.47ZM1329.41 1533.31C1330.56 1532.26 1332.05 1531.68 1333.61 1531.68C1335.16 1531.68 1336.65 1532.26 1337.8 1533.31C1339.49 1534.99 1341.78 1535.94 1344.16 1535.94C1346.55 1535.94 1348.84 1534.99 1350.53 1533.31L1354.01 1529.83L1351.77 1527.65L1348.36 1531.13C1347.21 1532.18 1345.72 1532.76 1344.16 1532.76C1342.61 1532.76 1341.12 1532.18 1339.97 1531.13C1338.28 1529.58 1336.06 1528.72 1333.76 1528.72C1331.46 1528.72 1329.25 1529.58 1327.55 1531.13L1323.64 1534.55L1325.87 1536.78L1329.41 1533.31ZM1444.38 1520.45C1445.52 1519.42 1447 1518.85 1448.54 1518.85C1450.08 1518.85 1451.56 1519.42 1452.7 1520.45C1454.41 1522.09 1456.7 1523.01 1459.07 1523.01C1461.44 1523.01 1463.72 1522.09 1465.44 1520.45L1468.91 1516.97L1466.74 1514.8L1463.26 1518.28C1462.12 1519.31 1460.64 1519.88 1459.1 1519.88C1457.56 1519.88 1456.08 1519.31 1454.94 1518.28C1454.1 1517.43 1453.1 1516.76 1452.01 1516.3C1450.91 1515.84 1449.73 1515.61 1448.54 1515.61C1447.35 1515.61 1446.17 1515.84 1445.08 1516.3C1443.98 1516.76 1442.98 1517.43 1442.14 1518.28L1438.54 1521.88L1440.72 1524.11L1444.38 1520.45ZM1453.57 1327.47C1454.12 1326.91 1454.77 1326.46 1455.49 1326.16C1456.21 1325.85 1456.98 1325.7 1457.76 1325.7C1458.55 1325.7 1459.32 1325.85 1460.04 1326.16C1460.76 1326.46 1461.41 1326.91 1461.96 1327.47C1463.64 1329.05 1465.86 1329.93 1468.17 1329.93C1470.48 1329.93 1472.7 1329.05 1474.38 1327.47L1477.8 1323.99L1475.62 1321.82L1472.21 1325.24C1471.06 1326.28 1469.56 1326.86 1468.01 1326.86C1466.46 1326.86 1464.97 1326.28 1463.82 1325.24C1462.11 1323.59 1459.83 1322.67 1457.45 1322.67C1455.08 1322.67 1452.8 1323.59 1451.09 1325.24L1447.42 1328.9L1449.6 1331.07L1453.57 1327.47ZM1403.88 1389.58C1405.03 1388.55 1406.51 1387.98 1408.05 1387.98C1409.58 1387.98 1411.07 1388.55 1412.21 1389.58C1413.89 1391.16 1416.11 1392.04 1418.42 1392.04C1420.73 1392.04 1422.95 1391.16 1424.63 1389.58L1428.11 1386.1L1425.93 1383.93L1422.45 1387.35C1421.31 1388.38 1419.83 1388.95 1418.29 1388.95C1416.76 1388.95 1415.27 1388.38 1414.13 1387.35C1412.42 1385.67 1410.13 1384.73 1407.73 1384.73C1405.34 1384.73 1403.04 1385.67 1401.34 1387.35L1397.73 1391.01L1399.91 1393.18L1403.88 1389.58ZM1232.46 1436.91C1233.6 1435.86 1235.1 1435.28 1236.65 1435.28C1238.2 1435.28 1239.7 1435.86 1240.84 1436.91C1242.54 1438.58 1244.83 1439.52 1247.21 1439.52C1249.59 1439.52 1251.88 1438.58 1253.58 1436.91L1257.05 1433.43L1254.82 1431.26L1251.4 1434.67C1250.26 1435.72 1248.76 1436.3 1247.21 1436.3C1245.66 1436.3 1244.16 1435.72 1243.02 1434.67C1241.29 1433.06 1239.02 1432.16 1236.65 1432.16C1234.29 1432.16 1232.01 1433.06 1230.28 1434.67L1226.62 1438.34L1228.86 1440.51L1232.46 1436.91ZM1074.76 1458.46C1075.9 1457.43 1077.38 1456.86 1078.92 1456.86C1080.46 1456.86 1081.94 1457.43 1083.08 1458.46C1084.78 1460.02 1086.99 1460.88 1089.29 1460.88C1091.59 1460.88 1093.81 1460.02 1095.51 1458.46L1098.98 1454.98L1096.81 1452.81L1093.33 1456.29C1092.19 1457.32 1090.71 1457.89 1089.17 1457.89C1087.63 1457.89 1086.15 1457.32 1085.01 1456.29C1083.29 1454.64 1080.99 1453.72 1078.61 1453.72C1076.23 1453.72 1073.94 1454.64 1072.21 1456.29L1068.98 1460.02L1071.16 1462.25L1074.76 1458.46ZM1101.59 1599.52C1102.73 1598.49 1104.22 1597.92 1105.75 1597.92C1107.29 1597.92 1108.77 1598.49 1109.91 1599.52C1111.61 1601.19 1113.9 1602.13 1116.28 1602.13C1118.66 1602.13 1120.95 1601.19 1122.65 1599.52L1126.13 1596.04L1123.89 1593.86L1120.47 1597.28C1119.93 1597.84 1119.28 1598.29 1118.56 1598.59C1117.84 1598.9 1117.06 1599.06 1116.28 1599.06C1115.5 1599.06 1114.72 1598.9 1114 1598.59C1113.28 1598.29 1112.63 1597.84 1112.09 1597.28C1110.41 1595.7 1108.19 1594.82 1105.88 1594.82C1103.57 1594.82 1101.35 1595.7 1099.67 1597.28L1096 1600.94L1098.24 1603.12L1101.59 1599.52ZM1002.22 1580.88C1003.36 1579.85 1004.84 1579.28 1006.38 1579.28C1007.91 1579.28 1009.4 1579.85 1010.54 1580.88C1012.22 1582.46 1014.44 1583.34 1016.75 1583.34C1019.06 1583.34 1021.28 1582.46 1022.96 1580.88L1026.44 1577.4L1024.26 1575.23L1020.79 1578.71C1019.64 1579.76 1018.15 1580.34 1016.59 1580.34C1015.04 1580.34 1013.55 1579.76 1012.4 1578.71C1011.57 1577.87 1010.58 1577.2 1009.49 1576.74C1008.39 1576.28 1007.22 1576.05 1006.03 1576.05C1004.85 1576.05 1003.68 1576.28 1002.58 1576.74C1001.49 1577.2 1000.5 1577.87 999.669 1578.71L996.066 1582.31L998.24 1584.55L1002.22 1580.88ZM1062.21 1195.43C1063.36 1194.39 1064.84 1193.82 1066.38 1193.82C1067.91 1193.82 1069.4 1194.39 1070.54 1195.43C1072.23 1196.98 1074.45 1197.84 1076.75 1197.84C1079.05 1197.84 1081.26 1196.98 1082.96 1195.43L1086.44 1191.95L1084.26 1189.77L1080.78 1193.25C1079.64 1194.3 1078.14 1194.88 1076.59 1194.88C1075.04 1194.88 1073.55 1194.3 1072.4 1193.25C1071.57 1192.41 1070.58 1191.74 1069.48 1191.28C1068.39 1190.82 1067.22 1190.59 1066.03 1190.59C1064.85 1190.59 1063.68 1190.82 1062.58 1191.28C1061.49 1191.74 1060.5 1192.41 1059.67 1193.25L1056.06 1196.85L1058.24 1199.09L1062.21 1195.43Z" fill="white"/>
<path d="M1525.81 1610.51H1435.06L1261.53 688.293C1298.05 700.715 1342.95 743.571 1367.11 808.29C1375.5 830.774 1383.82 856.985 1391.96 885.99C1392.33 887.419 1392.7 888.848 1393.14 890.276C1417.18 976.548 1440.16 1086.36 1459.97 1194.12C1471.21 1255.05 1481.46 1315.36 1490.34 1370.33L1491.46 1377.6C1512.58 1510.51 1525.81 1610.51 1525.81 1610.51Z" fill="#263238"/>
<path d="M1575.18 1426.04C1586.43 1451.38 1580.28 1493.99 1600.77 1491.57C1618.97 1489.39 1620.4 1459.46 1620.4 1459.46C1620.4 1459.46 1629.72 1493.74 1648.66 1485.79C1667.6 1477.84 1662.45 1444.74 1662.45 1444.74C1662.45 1444.74 1668.97 1473.62 1687.29 1464.3C1705.62 1454.98 1706.42 1426.1 1706.42 1426.1C1706.42 1426.1 1713.94 1433.06 1723.94 1420.7C1738.29 1403 1727.36 1355.05 1715.68 1331.32C1704 1307.6 1643.82 1229.46 1634.19 1217.78L1481.4 1291.26C1481.4 1291.26 1482.7 1343 1486.55 1369.15C1490.4 1395.3 1526.99 1477.9 1548.1 1470.2C1569.22 1462.5 1542.39 1404.61 1538.91 1388.96C1535.43 1373.31 1538.48 1369.89 1545.5 1375.73C1550.28 1379.27 1570.22 1414.8 1575.18 1426.04Z" fill="#EB9481"/>
<path d="M1619.78 1458.03C1618.72 1416.1 1611.08 1397.97 1588.23 1363.62C1587.79 1362.94 1588.66 1362.13 1589.22 1362.81C1614.62 1394.37 1627.54 1415.79 1621.77 1458.09C1621.77 1460.02 1619.78 1460.02 1619.78 1458.03Z" fill="#263238"/>
<path d="M1662.08 1446.48C1657.23 1403 1649.1 1383.31 1627.79 1345.61C1627.48 1345.05 1628.35 1344.49 1628.72 1344.99C1652.7 1380.27 1665.12 1401.88 1664.25 1445.92C1664.19 1447.9 1662.33 1448.46 1662.08 1446.48Z" fill="#263238"/>
<path d="M1705.99 1425.67C1698.29 1383.99 1690.28 1361.94 1664.93 1327.97C1664.84 1327.81 1664.8 1327.62 1664.83 1327.43C1664.86 1327.25 1664.95 1327.08 1665.09 1326.96C1665.23 1326.83 1665.41 1326.76 1665.59 1326.75C1665.78 1326.74 1665.96 1326.8 1666.11 1326.91C1695.31 1359.09 1705.55 1386.54 1707.23 1425.3C1707.36 1427.97 1706.49 1428.28 1705.99 1425.67Z" fill="#263238"/>
<path d="M1317.43 731.46C1435.44 854.004 1617.3 1180.02 1638.6 1224.55C1653.07 1254.8 1495.06 1334.74 1488.29 1312.75C1479.66 1284.55 1344.88 965.492 1308.17 834.501C1287.86 762.018 1293.08 706.119 1317.43 731.46Z" fill="#EB9481"/>
<path d="M1263.89 746.428C1271.77 791.148 1325 940.275 1325 940.275L1423.01 916.735L1424.75 916.362L1487.17 901.456C1487.17 901.456 1367.49 761.769 1311.4 718.727C1255.32 675.684 1255.32 696.057 1263.89 746.428Z" fill="#2A4F96"/>
<path d="M1422.39 894.81H1417.49C1415.1 894.81 1412.81 893.861 1411.12 892.172C1409.43 890.483 1408.48 888.193 1408.48 885.804C1408.48 884.157 1407.83 882.577 1406.66 881.412C1405.5 880.247 1403.92 879.593 1402.27 879.593H1397.11V876.488H1402.27C1404.66 876.488 1406.95 877.436 1408.64 879.125C1410.33 880.814 1411.27 883.105 1411.27 885.494C1411.35 887.034 1412 888.492 1413.09 889.582C1414.18 890.673 1415.63 891.319 1417.18 891.394H1422.08L1422.39 894.81ZM1340.1 815.93C1341.24 814.882 1342.74 814.301 1344.29 814.301C1345.84 814.301 1347.34 814.882 1348.48 815.93C1350.19 817.573 1352.47 818.491 1354.85 818.491C1357.22 818.491 1359.5 817.573 1361.21 815.93L1364.88 812.265L1362.64 810.091L1359.04 813.756C1357.89 814.803 1356.4 815.384 1354.85 815.384C1353.3 815.384 1351.8 814.803 1350.65 813.756C1349.82 812.913 1348.83 812.243 1347.74 811.786C1346.65 811.329 1345.47 811.094 1344.29 811.094C1343.1 811.094 1341.93 811.329 1340.84 811.786C1339.75 812.243 1338.75 812.913 1337.92 813.756L1334.44 817.172L1336.68 819.408L1340.1 815.93ZM1312.71 885.928C1312.78 884.388 1313.43 882.93 1314.52 881.84C1315.61 880.749 1317.07 880.103 1318.61 880.028C1320.99 880.028 1323.29 879.079 1324.97 877.39C1326.66 875.701 1327.61 873.41 1327.61 871.022V865.867H1324.51V871.022C1324.51 872.617 1323.9 874.151 1322.8 875.307C1321.7 876.464 1320.2 877.153 1318.61 877.233C1316.22 877.233 1313.93 878.182 1312.24 879.871C1310.55 881.56 1309.6 883.85 1309.6 886.239V891.146H1312.71V885.928ZM1277.18 775.247C1277.17 774.443 1277.32 773.645 1277.64 772.904C1277.95 772.163 1278.41 771.495 1278.99 770.941C1279.58 770.387 1280.27 769.959 1281.03 769.685C1281.78 769.411 1282.59 769.296 1283.39 769.347C1285.78 769.347 1288.07 768.398 1289.76 766.709C1291.45 765.02 1292.4 762.73 1292.4 760.341V755.186H1289.29V760.341C1289.29 761.936 1288.68 763.47 1287.58 764.627C1286.48 765.783 1284.98 766.472 1283.39 766.552C1281 766.552 1278.71 767.501 1277.02 769.19C1275.33 770.879 1274.38 773.169 1274.38 775.558V780.403H1277.49L1277.18 775.247Z" fill="white"/>
<path d="M1316.87 723.075C1318.11 720.217 1238.92 791.396 1173.64 778.974C1141.03 772.763 1134.88 700.032 1138.73 699.286C1193.64 688.168 1245.75 658.231 1316.87 723.075Z" fill="#EB9481"/>
<path d="M1254.69 696.926C1252.27 703.137 1215.56 740.403 1186.37 734.938C1176.87 733.074 1184.63 680.715 1184.63 680.715L1184.32 676.678L1179.98 620.779L1249.54 589.04L1259.48 584.941C1259.48 584.941 1259.48 600.344 1259.48 619.474V622.207C1259.48 623.325 1259.48 624.319 1259.48 625.375C1259.48 628.232 1259.48 631.151 1259.48 634.07C1259.48 636.99 1259.48 638.418 1259.48 640.778V647.673C1259.02 664.181 1257.43 680.639 1254.69 696.926V696.926Z" fill="#EB9481"/>
<path d="M1259.66 619.474C1252.01 633.915 1241.29 646.514 1228.27 656.393C1215.25 666.272 1200.23 673.194 1184.26 676.678L1179.91 620.779L1249.48 589.04L1259.41 584.941C1259.41 584.941 1259.6 600.344 1259.66 619.474Z" fill="#263238"/>
<path d="M1118.67 523.513C1095.88 619.35 1150.66 643.821 1171.34 648.666C1189.98 653.138 1254.57 665.871 1287.12 572.953C1319.66 480.036 1282.4 439.105 1239.97 426.683C1197.55 414.261 1141.34 427.677 1118.67 523.513Z" fill="#EB9481"/>
<path d="M1139.67 513.141C1141.94 513.267 1144.22 513.267 1146.5 513.141C1148.89 513.373 1151.29 512.805 1153.33 511.526C1153.9 511.001 1154.28 510.303 1154.41 509.54C1154.55 508.777 1154.43 507.991 1154.08 507.303C1153.15 506.054 1151.91 505.078 1150.48 504.477C1149.04 503.875 1147.48 503.672 1145.94 503.887C1142.77 503.848 1139.7 504.975 1137.31 507.054C1136.88 507.565 1136.59 508.182 1136.49 508.84C1136.38 509.498 1136.45 510.173 1136.69 510.795C1136.93 511.417 1137.33 511.962 1137.86 512.375C1138.38 512.788 1139 513.052 1139.67 513.141V513.141Z" fill="#263238"/>
<path d="M1206.62 526.309C1204.5 525.605 1202.43 524.776 1200.41 523.824C1197.99 523.297 1195.8 521.987 1194.2 520.098C1193.83 519.411 1193.71 518.623 1193.84 517.857C1193.98 517.092 1194.37 516.393 1194.94 515.874C1196.21 514.997 1197.7 514.476 1199.24 514.367C1200.78 514.258 1202.32 514.564 1203.7 515.253C1206.73 516.195 1209.29 518.262 1210.84 521.029C1211.16 521.665 1211.29 522.379 1211.21 523.085C1211.14 523.792 1210.86 524.462 1210.42 525.017C1209.97 525.572 1209.38 525.988 1208.71 526.217C1208.04 526.446 1207.31 526.478 1206.62 526.309V526.309Z" fill="#263238"/>
<path d="M1189.6 548.668C1189.6 548.668 1190.04 549.103 1189.98 549.351C1188.55 555.935 1187.99 563.637 1193.52 566.991C1193.52 566.991 1193.52 567.426 1193.52 567.301C1186.31 564.941 1186.99 554.631 1189.6 548.668Z" fill="#263238"/>
<path d="M1196.81 542.892C1207.55 544.134 1204.32 565.5 1194.38 564.444C1184.45 563.389 1187.8 541.898 1196.81 542.892Z" fill="#263238"/>
<path d="M1200.84 544.693C1202.52 546.184 1204.01 548.606 1206.25 549.165C1208.48 549.724 1211.15 547.861 1213.14 545.935C1213.14 545.935 1213.52 545.935 1213.14 545.935C1212.65 550.035 1210.41 554.01 1205.94 553.948C1201.47 553.885 1199.73 549.848 1199.11 545.563C1199.42 545.128 1200.16 544.072 1200.84 544.693Z" fill="#263238"/>
<path d="M1148.49 539.476C1148.49 539.476 1147.93 539.476 1147.93 539.973C1147.18 546.681 1145.19 554.196 1138.92 555.501V555.873C1146.37 555.935 1148.86 545.873 1148.49 539.476Z" fill="#263238"/>
<path d="M1143.52 531.712C1132.9 529.352 1129.04 550.345 1138.86 552.83C1148.67 555.314 1152.4 533.637 1143.52 531.712Z" fill="#263238"/>
<path d="M1138.86 532.271C1136.99 533.141 1134.95 534.88 1132.65 534.631C1130.35 534.383 1128.98 531.774 1127.86 529.29C1127.86 529.29 1127.55 529.29 1127.49 529.29C1126.68 533.389 1127.49 537.861 1131.03 539.352C1134.57 540.842 1137.74 537.675 1139.42 533.824C1139.98 533.203 1139.6 531.961 1138.86 532.271Z" fill="#263238"/>
<path d="M1154.94 570.717C1154.94 570.717 1151.96 580.345 1151.22 585.003C1151.22 585.438 1152.21 585.872 1153.83 586.183C1157.71 587.561 1161.9 587.838 1165.94 586.983C1169.97 586.129 1173.69 584.175 1176.68 581.338C1177.06 580.966 1176.68 580.407 1176.06 580.593C1169.47 583.715 1162.03 584.609 1154.88 583.14C1154.88 581.773 1160.53 566.742 1159.79 566.556C1156.11 566.308 1152.42 566.537 1148.8 567.239C1154.39 546.929 1163.21 527.675 1168.42 507.365C1168.49 507.208 1168.49 507.032 1168.43 506.875C1168.36 506.717 1168.24 506.592 1168.08 506.526C1167.92 506.46 1167.75 506.459 1167.59 506.523C1167.43 506.587 1167.31 506.711 1167.24 506.868C1157.24 527.249 1149.29 548.575 1143.52 570.531C1142.77 573.14 1152.96 571.214 1154.94 570.717Z" fill="#263238"/>
<path d="M1154.76 582.705C1156.52 587.069 1159.37 590.915 1163.02 593.885C1165.1 595.41 1167.59 596.276 1170.16 596.369C1175.75 596.369 1177.24 591.711 1177.43 587.301C1177.52 584.968 1177.33 582.633 1176.87 580.345C1169.94 583.477 1162.19 584.305 1154.76 582.705V582.705Z" fill="#263238"/>
<path d="M1163.02 593.885C1165.1 595.41 1167.59 596.276 1170.16 596.369C1175.75 596.369 1177.24 591.711 1177.43 587.301C1174.64 586.621 1171.7 586.9 1169.08 588.094C1166.47 589.289 1164.33 591.328 1163.02 593.885V593.885Z" fill="#FF9BBC"/>
<path d="M1286.37 573.264C1275.38 570.78 1251.46 535.439 1259.41 481.589C1259.41 481.589 1255.63 530.408 1258.05 538.11C1260.47 545.811 1244.69 518.172 1250.53 474.695C1235.28 482.216 1219.03 487.508 1202.27 490.409C1180.91 492.769 1168.42 490.409 1167.18 488.794C1165.94 487.179 1197.61 482.583 1207.3 474.508C1207.3 474.508 1148.73 490.843 1123.33 488.607C1120.41 488.607 1126.81 428.112 1169.73 409.168C1212.65 390.224 1269.6 427.801 1283.45 446.434C1283.45 446.434 1302.4 452.645 1318.79 484.57C1335.19 516.495 1298.05 575.997 1286.37 573.264Z" fill="#263238"/>
<path d="M1270.04 576.68C1270.04 576.68 1295.81 549.414 1308.48 559.041C1321.15 568.668 1298.67 610.344 1281.53 614.009C1279.37 614.624 1277.11 614.796 1274.88 614.515C1272.66 614.234 1270.51 613.507 1268.57 612.375C1266.63 611.244 1264.95 609.733 1263.61 607.932C1262.27 606.131 1261.31 604.079 1260.78 601.897L1270.04 576.68Z" fill="#EB9481"/>
<path d="M1301.71 570.842C1301.71 570.842 1301.71 571.214 1301.71 571.276C1289.66 574.196 1282.09 583.698 1276.31 594.133C1277.14 593.092 1278.18 592.243 1279.36 591.643C1280.55 591.044 1281.85 590.709 1283.18 590.662C1284.51 590.615 1285.83 590.856 1287.06 591.37C1288.29 591.883 1289.39 592.656 1290.28 593.636C1290.34 593.695 1290.38 593.772 1290.39 593.855C1290.4 593.938 1290.38 594.022 1290.34 594.093C1290.3 594.165 1290.23 594.22 1290.15 594.25C1290.08 594.28 1289.99 594.282 1289.91 594.257C1288.02 593.296 1285.87 592.958 1283.77 593.293C1281.67 593.627 1279.73 594.617 1278.23 596.121C1275.7 598.593 1273.45 601.343 1271.53 604.319C1270.84 605.251 1269.1 604.319 1269.66 603.325C1271.71 588.605 1285.94 569.972 1301.71 570.842Z" fill="#263238"/>
<path opacity="0.5" d="M429.805 497.613C396.7 578.357 305.584 904.065 365.148 1124.37C417.321 1316.48 538.498 1416.97 593.466 1449.52C674.21 1497.34 760.357 1527.72 756.879 1545.91C753.4 1564.11 668.558 1524.73 664.707 1531.75C660.856 1538.77 849.237 1720.07 1184.2 1757.09C1701.89 1814.29 2005.92 1628.15 2050.64 1620.14C2095.36 1612.12 1881.76 1870.19 1724.93 1930.69C1688.85 1944.54 1820.21 1909.01 1909.4 1855.6C1942.88 1835.54 1850.64 2105.96 1542.51 2172.86C1483.26 2185.71 1611.27 2184.97 1656.92 2179.57C1702.57 2174.16 1525.06 2302.05 1063.52 2265.28C704.395 2236.4 369.806 1956.15 232.355 1647.15C216.89 1612.37 185.027 1635.11 174.841 1610.51C153.102 1558.03 163.164 1456.54 152.543 1436.6C141.923 1416.66 107.079 1436.6 96.644 1383.43C86.2094 1330.27 91.7993 1170.77 177.822 914.996C188.009 884.686 173.972 894.934 155.587 922.015C137.202 949.095 115.463 973.194 94.967 972.2C74.4705 971.206 85.3398 895.99 172.046 757.546C320.677 519.663 459.866 424.634 429.805 497.613Z" fill="#2A4F96"/>
<path opacity="0.5" d="M783.897 1577.65C784.766 1552.31 882.653 1564.8 873.771 1598.77C864.889 1632.75 782.717 1612.06 783.897 1577.65Z" fill="#2A4F96"/>
<path opacity="0.5" d="M1697.73 2171.12C1703.94 2194.84 1789.28 2178.32 1782.51 2146.27C1775.74 2114.23 1690.52 2142.55 1697.73 2171.12Z" fill="#2A4F96"/>
<path opacity="0.5" d="M74.8432 1000.77C58.5082 998.721 47.3282 1033.88 66.9552 1040.4C86.5821 1046.92 96.2092 1003.57 74.8432 1000.77Z" fill="#2A4F96"/>
<path opacity="0.5" d="M2075.55 1604.17C2087.97 1620.14 2173.43 1567.72 2137.97 1542.87C2113.25 1525.48 2063.25 1588.21 2075.55 1604.17Z" fill="#2A4F96"/>
<path d="M1328.85 2074.79L1294.94 2081.06L1287.36 2116.83L1279.79 2081.06L1245.81 2074.79L1279.6 2066.52L1287.36 2032.74L1295.07 2066.52L1328.85 2074.79Z" fill="#FEFEFE"/>
<path d="M515.269 1556.97L481.356 1563.24L473.779 1599.02L466.201 1563.24L432.227 1556.97L466.015 1548.71L473.779 1514.92L481.481 1548.71L515.269 1556.97Z" fill="#FEFEFE"/>
<path d="M343.099 614.568L309.186 620.841L301.609 656.616L294.031 620.841L260.119 614.568L293.845 606.307L301.609 572.519L309.31 606.307L343.099 614.568Z" fill="#FEFEFE"/>
<path d="M1968.72 1709.39L1949.71 1712.93L1945.49 1732.93L1941.26 1712.93L1922.32 1709.39L1941.2 1704.79L1945.49 1685.91L1949.84 1704.79L1968.72 1709.39Z" fill="#FEFEFE"/>
<path d="M924.329 1814.23L905.385 1817.77L901.161 1837.71L896.938 1817.77L877.994 1814.23L896.814 1809.64L901.161 1790.75L905.509 1809.64L924.329 1814.23Z" fill="#FEFEFE"/>
<path d="M1730.96 2056.21L1712.01 2059.75L1707.79 2079.75L1703.5 2059.75L1684.56 2056.21L1703.44 2051.62L1707.79 2032.74L1712.08 2051.62L1730.96 2056.21Z" fill="#FEFEFE"/>
<path d="M1123.02 2200.81L1104.08 2204.29L1099.79 2224.29L1095.57 2204.29L1076.62 2200.81L1095.51 2196.15L1099.79 2177.27L1104.14 2196.15L1123.02 2200.81Z" fill="#FEFEFE"/>
<path d="M390.799 1709.39L371.794 1712.93L367.57 1732.93L363.347 1712.93L344.403 1709.39L363.284 1704.79L367.57 1685.91L371.918 1704.79L390.799 1709.39Z" fill="#FEFEFE"/>
<path d="M367.57 1149.09L348.626 1152.57L344.403 1172.57L340.179 1152.57L321.173 1149.09L340.055 1144.43L344.403 1125.55L348.688 1144.43L367.57 1149.09Z" fill="#FEFEFE"/>
<path d="M1389.23 1863.05C1387.87 1863.2 1386.61 1863.84 1385.7 1864.85C1384.79 1865.87 1384.28 1867.18 1384.28 1868.55C1384.28 1869.91 1384.79 1871.23 1385.7 1872.24C1386.61 1873.26 1387.87 1873.9 1389.23 1874.04C1390.58 1873.9 1391.84 1873.26 1392.75 1872.24C1393.66 1871.23 1394.17 1869.91 1394.17 1868.55C1394.17 1867.18 1393.66 1865.87 1392.75 1864.85C1391.84 1863.84 1390.58 1863.2 1389.23 1863.05V1863.05Z" fill="#FEFEFE"/>
<path d="M224.281 828.228C222.924 828.372 221.668 829.014 220.756 830.028C219.843 831.043 219.338 832.36 219.338 833.725C219.338 835.089 219.843 836.406 220.756 837.421C221.668 838.436 222.924 839.077 224.281 839.221C225.638 839.077 226.894 838.436 227.806 837.421C228.719 836.406 229.224 835.089 229.224 833.725C229.224 832.36 228.719 831.043 227.806 830.028C226.894 829.014 225.638 828.372 224.281 828.228Z" fill="#FEFEFE"/>
<path d="M1734.81 1877.83C1733.45 1877.98 1732.2 1878.62 1731.28 1879.63C1730.37 1880.65 1729.87 1881.97 1729.87 1883.33C1729.87 1884.69 1730.37 1886.01 1731.28 1887.03C1732.2 1888.04 1733.45 1888.68 1734.81 1888.83C1736.17 1888.68 1737.42 1888.04 1738.33 1887.03C1739.25 1886.01 1739.75 1884.69 1739.75 1883.33C1739.75 1881.97 1739.25 1880.65 1738.33 1879.63C1737.42 1878.62 1736.17 1877.98 1734.81 1877.83V1877.83Z" fill="#FEFEFE"/>
<path d="M260.119 1598.77C258.762 1598.91 257.506 1599.56 256.593 1600.57C255.681 1601.59 255.176 1602.9 255.176 1604.27C255.176 1605.63 255.681 1606.95 256.593 1607.96C257.506 1608.98 258.762 1609.62 260.119 1609.76C261.476 1609.62 262.732 1608.98 263.644 1607.96C264.557 1606.95 265.061 1605.63 265.061 1604.27C265.061 1602.9 264.557 1601.59 263.644 1600.57C262.732 1599.56 261.476 1598.91 260.119 1598.77V1598.77Z" fill="#FEFEFE"/>
<path d="M128.507 1262.32C127.562 1262.44 126.693 1262.9 126.063 1263.61C125.433 1264.33 125.086 1265.25 125.086 1266.2C125.086 1267.15 125.433 1268.07 126.063 1268.79C126.693 1269.5 127.562 1269.96 128.507 1270.08C129.452 1269.96 130.321 1269.5 130.95 1268.79C131.58 1268.07 131.928 1267.15 131.928 1266.2C131.928 1265.25 131.58 1264.33 130.95 1263.61C130.321 1262.9 129.452 1262.44 128.507 1262.32V1262.32Z" fill="#FEFEFE"/>
<path d="M996.439 1963.11C995.494 1963.23 994.625 1963.69 993.995 1964.41C993.365 1965.12 993.018 1966.04 993.018 1966.99C993.018 1967.95 993.365 1968.87 993.995 1969.58C994.625 1970.29 995.494 1970.75 996.439 1970.87C997.384 1970.75 998.253 1970.29 998.882 1969.58C999.512 1968.87 999.86 1967.95 999.86 1966.99C999.86 1966.04 999.512 1965.12 998.882 1964.41C998.253 1963.69 997.384 1963.23 996.439 1963.11V1963.11Z" fill="#FEFEFE"/>
<path d="M612.907 1949.14C611.962 1949.26 611.093 1949.72 610.463 1950.43C609.833 1951.15 609.486 1952.07 609.486 1953.02C609.486 1953.97 609.833 1954.89 610.463 1955.6C611.093 1956.32 611.962 1956.78 612.907 1956.9C613.852 1956.78 614.72 1956.32 615.35 1955.6C615.98 1954.89 616.328 1953.97 616.328 1953.02C616.328 1952.07 615.98 1951.15 615.35 1950.43C614.72 1949.72 613.852 1949.26 612.907 1949.14V1949.14Z" fill="#FEFEFE"/>
<path d="M1272.27 1917.15C1269.62 1917.35 1267.14 1918.55 1265.33 1920.5C1263.53 1922.45 1262.52 1925.02 1262.52 1927.68C1262.52 1930.34 1263.53 1932.9 1265.33 1934.85C1267.14 1936.8 1269.62 1938 1272.27 1938.2C1274.92 1938 1277.4 1936.8 1279.21 1934.85C1281.02 1932.9 1282.02 1930.34 1282.02 1927.68C1282.02 1925.02 1281.02 1922.45 1279.21 1920.5C1277.4 1918.55 1274.92 1917.35 1272.27 1917.15Z" fill="#FEFEFE"/>
<path d="M662.719 1913.42C660.067 1913.63 657.589 1914.82 655.781 1916.78C653.974 1918.73 652.97 1921.29 652.97 1923.95C652.97 1926.61 653.974 1929.17 655.781 1931.12C657.589 1933.08 660.067 1934.27 662.719 1934.48C665.372 1934.27 667.849 1933.08 669.657 1931.12C671.465 1929.17 672.469 1926.61 672.469 1923.95C672.469 1921.29 671.465 1918.73 669.657 1916.78C667.849 1914.82 665.372 1913.63 662.719 1913.42Z" fill="#FEFEFE"/>
<path d="M682.657 1135.49C681.409 1142.03 678.25 1148.05 673.58 1152.8C668.909 1157.54 662.937 1160.79 656.418 1162.14C649.899 1163.49 643.125 1162.88 636.954 1160.38C630.784 1157.88 625.492 1153.61 621.749 1148.11C618.006 1142.6 615.98 1136.11 615.926 1129.45C615.873 1122.79 617.794 1116.27 621.448 1110.7C625.102 1105.14 630.324 1100.78 636.454 1098.18C642.584 1095.59 649.347 1094.86 655.887 1096.11C660.231 1096.94 664.369 1098.61 668.065 1101.04C671.761 1103.47 674.943 1106.6 677.429 1110.25C679.915 1113.91 681.656 1118.02 682.553 1122.35C683.45 1126.68 683.485 1131.15 682.657 1135.49V1135.49Z" fill="#455A64"/>
<path d="M714.229 968.952L688.968 964.147L657.352 1130.36L682.613 1135.16L714.229 968.952Z" fill="#455A64"/>
<path d="M798.803 1107.73C797.567 1114.27 794.417 1120.3 789.752 1125.06C785.086 1129.81 779.116 1133.07 772.595 1134.43C766.075 1135.79 759.297 1135.19 753.121 1132.69C746.945 1130.2 741.647 1125.93 737.898 1120.42C734.15 1114.92 732.118 1108.42 732.062 1101.76C732.005 1095.1 733.926 1088.57 737.58 1083.01C741.235 1077.44 746.459 1073.08 752.592 1070.48C758.725 1067.88 765.491 1067.16 772.034 1068.41C780.793 1070.08 788.532 1075.16 793.551 1082.53C798.569 1089.9 800.459 1098.96 798.803 1107.73V1107.73Z" fill="#455A64"/>
<path d="M830.4 941.207L805.14 936.402L773.524 1102.61L798.785 1107.42L830.4 941.207Z" fill="#455A64"/>
<path d="M830.418 941.517L684.831 986.299L689.054 964.126L834.641 919.282L830.418 941.517Z" fill="#455A64"/>
<path d="M822.467 983.38L676.88 1028.16L681.104 1005.99L826.691 961.144L822.467 983.38Z" fill="#455A64"/>
<path d="M2133.43 244.886C2132.16 251.415 2128.99 257.421 2124.31 262.147C2119.63 266.873 2113.65 270.106 2107.13 271.439C2100.62 272.772 2093.85 272.144 2087.69 269.635C2081.53 267.126 2076.25 262.849 2072.52 257.343C2068.79 251.837 2066.77 245.348 2066.73 238.697C2066.68 232.046 2068.6 225.53 2072.26 219.971C2075.91 214.412 2081.13 210.06 2087.25 207.464C2093.37 204.868 2100.13 204.144 2106.66 205.384C2111.02 206.202 2115.18 207.877 2118.89 210.309C2122.6 212.742 2125.79 215.885 2128.28 219.558C2130.77 223.23 2132.5 227.359 2133.39 231.706C2134.27 236.054 2134.29 240.533 2133.43 244.886V244.886Z" fill="#C7C7C7"/>
<path d="M2165.13 78.3873L2139.87 73.5823L2108.25 239.791L2133.52 244.596L2165.13 78.3873Z" fill="#C7C7C7"/>
<path d="M2259.02 51.9635L2233.76 47.1584L2224.62 95.1784L2249.88 99.9834L2259.02 51.9635Z" fill="#C7C7C7"/>
<path d="M2257.84 58.2439L2135.67 95.6965L2139.89 73.5231L2262.06 36.0083L2257.84 58.2439Z" fill="#C7C7C7"/>
<path d="M2249.89 100.106L2127.72 137.621L2131.94 115.386L2254.11 77.8708L2249.89 100.106Z" fill="#C7C7C7"/>
<path d="M2178.65 1250.02C2130.02 1357.41 2051.82 1355.05 2030.33 1380.95C2018.31 1397.73 2007.25 1415.2 1997.23 1433.25L1880.71 1395.98C1882.99 1375.46 1884.09 1354.83 1884 1334.18C1881.58 1300.64 1816.36 1257.23 1839.03 1141.64C1853.81 1065.61 1945.86 967.728 2068.84 1006.86C2191.82 1045.99 2210.58 1179.46 2178.65 1250.02Z" fill="#2A4F96"/>
<path d="M1929.48 1216.26L1904.74 1412.65L1910.9 1413.43L1935.64 1217.03L1929.48 1216.26Z" fill="white"/>
<path d="M2056.41 1255.77L1962.5 1430.02L1967.97 1432.97L2061.87 1258.71L2056.41 1255.77Z" fill="white"/>
<path d="M1982.01 1299.4C1979.9 1299.46 1977.8 1299.17 1975.8 1298.53C1966.67 1295.61 1959.77 1285.42 1956.36 1269.83C1956.36 1269.15 1956.36 1268.41 1955.92 1267.72C1954.23 1268.89 1952.31 1269.69 1950.29 1270.07C1948.27 1270.46 1946.19 1270.42 1944.18 1269.96C1926.73 1264.37 1931.2 1226.17 1931.39 1224.56L1934.49 1224.93C1934.49 1225.3 1930.08 1262.19 1945.12 1266.98C1946.91 1267.31 1948.77 1267.25 1950.54 1266.79C1952.31 1266.33 1953.96 1265.48 1955.36 1264.31C1952.82 1246.79 1954.99 1225.67 1963.07 1218.28C1964.32 1217.08 1965.89 1216.25 1967.58 1215.88C1969.28 1215.51 1971.05 1215.61 1972.69 1216.17C1980.33 1218.59 1982.82 1226.17 1979.4 1236.85C1975.38 1248.26 1968.24 1258.32 1958.78 1265.86C1958.78 1266.98 1959.15 1268.03 1959.4 1269.15C1961.26 1277.54 1965.92 1292.13 1976.73 1295.55C1984 1297.91 1993.06 1294.49 2002.38 1286.04C2003.13 1285.36 2003.93 1284.62 2004.68 1283.81C2000.38 1272.74 2000.11 1260.52 2003.93 1249.28C2008.1 1236.29 2015.49 1229.83 2023.37 1232.32C2024.89 1232.83 2026.24 1233.73 2027.28 1234.95C2028.32 1236.16 2029.01 1237.64 2029.27 1239.21C2031.57 1249.83 2021.88 1270.27 2008.34 1284.49C2010.53 1288.54 2014.17 1291.6 2018.53 1293.06C2029.21 1296.48 2046.79 1274 2052.69 1265.05L2055.24 1266.73C2054.37 1268.16 2032.69 1300.89 2017.6 1296.04C2012.79 1294.42 2008.73 1291.11 2006.17 1286.73L2004.43 1288.34C1998.48 1294.54 1990.55 1298.46 1982.01 1299.4V1299.4ZM2020.52 1234.93C2014.31 1234.93 2009.71 1242.82 2007.35 1250.21C2004.08 1260.3 2004.08 1271.17 2007.35 1281.26C2019.77 1267.85 2028.72 1248.96 2026.67 1239.59C2026.52 1238.54 2026.08 1237.56 2025.4 1236.76C2024.72 1235.95 2023.82 1235.36 2022.82 1235.05C2022 1234.87 2021.16 1234.83 2020.33 1234.93H2020.52ZM1970.02 1218.78C1969.2 1218.77 1968.39 1218.93 1967.64 1219.24C1966.88 1219.55 1966.19 1220 1965.61 1220.58C1959.4 1226.42 1956.36 1244.8 1958.66 1262.26C1966.92 1255.22 1973.19 1246.14 1976.85 1235.92C1978.53 1230.7 1980.08 1221.64 1972.13 1219.09C1971.3 1218.86 1970.45 1218.76 1969.59 1218.78H1970.02Z" fill="white"/>
<path d="M2012.32 1432.77L1868.54 1386.85L1859.57 1414.96L2003.34 1460.87L2012.32 1432.77Z" fill="#A6A6A6"/>
<path d="M2001.84 1465.38L1858.06 1419.46L1849.09 1447.57L1992.86 1493.48L2001.84 1465.38Z" fill="#A6A6A6"/>
<path d="M1991.4 1498.04L1847.62 1452.13L1838.65 1480.24L1982.42 1526.15L1991.4 1498.04Z" fill="#A6A6A6"/>
<path d="M2094.41 911.395L2079.56 958.029L2085.48 959.915L2100.33 913.281L2094.41 911.395Z" fill="#DBDBDB"/>
<path d="M1957.79 905.034L1951.72 906.356L1962.14 954.178L1968.21 952.856L1957.79 905.034Z" fill="#DBDBDB"/>
<path d="M1830.02 968.657L1825.42 972.837L1858.36 1009.04L1862.96 1004.86L1830.02 968.657Z" fill="#DBDBDB"/>
<path d="M1751.39 1088.24L1749.5 1094.16L1796.13 1109.05L1798.02 1103.13L1751.39 1088.24Z" fill="#DBDBDB"/>
<path d="M1790.56 1220.42L1742.74 1230.84L1744.06 1236.91L1791.89 1226.49L1790.56 1220.42Z" fill="#DBDBDB"/>
<path d="M2168.15 1341.64L2163.56 1345.82L2196.49 1382.02L2201.09 1377.84L2168.15 1341.64Z" fill="#DBDBDB"/>
<path d="M2230.59 1242L2228.7 1247.91L2275.33 1262.8L2277.22 1256.88L2230.59 1242Z" fill="#DBDBDB"/>
<path d="M2282.46 1113.71L2234.64 1124.12L2235.96 1130.19L2283.78 1119.77L2282.46 1113.71Z" fill="#DBDBDB"/>
<path d="M2215.53 987.484L2179.36 1020.46L2183.54 1025.05L2219.71 992.075L2215.53 987.484Z" fill="#DBDBDB"/>
</svg>
